<?xml version="1.0" encoding="UTF-8" standalone="no"?>
<!DOCTYPE svg PUBLIC "-//W3C//DTD SVG 1.1//EN"
 "http://www.w3.org/Graphics/SVG/1.1/DTD/svg11.dtd">
<!-- Generated by graphviz version 10.0.1 (0)
 -->
<!-- Title: nixstore Pages: 1 -->
<svg width="2397pt" height="5606pt"
 viewBox="0.00 0.00 2397.12 5605.50" xmlns="http://www.w3.org/2000/svg" xmlns:xlink="http://www.w3.org/1999/xlink">
<g id="graph0" class="graph" transform="scale(1 1) rotate(0) translate(4 5601.5)">
<title>nixstore</title>
<polygon fill="white" stroke="none" points="-4,4 -4,-5601.5 2393.12,-5601.5 2393.12,4 -4,4"/>
<!-- N88 -->
<g id="node1" class="node">
<title>N88</title>
<polygon fill="#30123b" stroke="#30123b" points="638.24,-5004.05 638.24,-5018.96 585.56,-5029.5 511.06,-5029.5 458.38,-5018.96 458.38,-5004.05 511.06,-4993.5 585.56,-4993.5 638.24,-5004.05"/>
<polygon fill="none" stroke="#30123b" points="642.24,-5000.77 642.24,-5022.24 585.96,-5033.5 510.67,-5033.5 454.38,-5022.24 454.38,-5000.77 510.67,-4989.5 585.96,-4989.5 642.24,-5000.77"/>
<polygon fill="none" stroke="#30123b" points="646.24,-4997.49 646.24,-5025.52 586.35,-5037.5 510.27,-5037.5 450.38,-5025.52 450.38,-4997.49 510.27,-4985.5 586.35,-4985.5 646.24,-4997.49"/>
<text text-anchor="middle" x="548.31" y="-5006.45" font-family="Times,serif" font-size="14.00" fill="#ffffff">{transient} (672 B)</text>
</g>
<!-- N6 -->
<g id="node81" class="node">
<title>N6</title>
<polygon fill="#31b0f5" stroke="#31b0f5" points="2009.75,-4738.5 1855.75,-4738.5 1855.75,-4702.5 2009.75,-4702.5 2009.75,-4738.5"/>
<text text-anchor="middle" x="1932.75" y="-4715.45" font-family="Times,serif" font-size="14.00" fill="#000000">libpsl&#45;0.21.5 (632.2 MB)</text>
</g>
<!-- N88&#45;&gt;N6 -->
<g id="edge86" class="edge">
<title>N88&#45;&gt;N6</title>
<path fill="none" stroke="black" d="M646.54,-5012.1C756.62,-5011.21 940.91,-5004.94 1096.62,-4976.5 1397.28,-4921.59 1742.15,-4794.47 1875.27,-4742.87"/>
<polygon fill="black" stroke="black" points="1876.15,-4746.29 1884.2,-4739.4 1873.61,-4739.76 1876.15,-4746.29"/>
</g>
<!-- N87 -->
<g id="node2" class="node">
<title>N87</title>
<polygon fill="#30123b" stroke="#30123b" points="730.2,-4584.05 730.2,-4598.96 623.65,-4609.5 472.97,-4609.5 366.42,-4598.96 366.42,-4584.05 472.97,-4573.5 623.65,-4573.5 730.2,-4584.05"/>
<polygon fill="none" stroke="#30123b" points="734.2,-4580.42 734.2,-4602.58 623.85,-4613.5 472.77,-4613.5 362.42,-4602.58 362.42,-4580.42 472.77,-4569.5 623.85,-4569.5 734.2,-4580.42"/>
<polygon fill="none" stroke="#30123b" points="738.2,-4576.8 738.2,-4606.21 624.05,-4617.5 472.58,-4617.5 358.42,-4606.21 358.42,-4576.8 472.58,-4565.5 624.05,-4565.5 738.2,-4576.8"/>
<text text-anchor="middle" x="548.31" y="-4586.45" font-family="Times,serif" font-size="14.00" fill="#ffffff">NixOS generation 225, 2m ago (88.8 KB)</text>
</g>
<!-- N13 -->
<g id="node88" class="node">
<title>N13</title>
<polygon fill="#18d8c9" stroke="#18d8c9" points="1410.75,-3454.5 1283.75,-3454.5 1283.75,-3418.5 1410.75,-3418.5 1410.75,-3454.5"/>
<text text-anchor="middle" x="1347.25" y="-3431.45" font-family="Times,serif" font-size="14.00" fill="#000000">coq&#45;8.18.0 (1.1 GB)</text>
</g>
<!-- N87&#45;&gt;N13 -->
<g id="edge81" class="edge">
<title>N87&#45;&gt;N13</title>
<path fill="none" stroke="black" d="M738.64,-4604.79C876.49,-4609.94 1047.32,-4605.4 1096.62,-4556.5 1136.02,-4517.44 1121.52,-4112.86 1132.62,-4058.5 1180.89,-3822.19 1294.96,-3552.36 1333.37,-3465.22"/>
<polygon fill="black" stroke="black" points="1336.51,-3466.78 1337.36,-3456.22 1330.11,-3463.95 1336.51,-3466.78"/>
</g>
<!-- N86 -->
<g id="node3" class="node">
<title>N86</title>
<polygon fill="#3a2d7a" stroke="#3a2d7a" points="850.97,-1644.05 850.97,-1658.96 673.68,-1669.5 422.95,-1669.5 245.66,-1658.96 245.66,-1644.05 422.95,-1633.5 673.68,-1633.5 850.97,-1644.05"/>
<polygon fill="none" stroke="#3a2d7a" points="854.97,-1640.28 854.97,-1662.73 673.8,-1673.5 422.83,-1673.5 241.66,-1662.73 241.66,-1640.28 422.83,-1629.5 673.8,-1629.5 854.97,-1640.28"/>
<polygon fill="none" stroke="#3a2d7a" points="858.97,-1636.51 858.97,-1666.5 673.91,-1677.5 422.71,-1677.5 237.66,-1666.5 237.66,-1636.51 422.71,-1625.5 673.91,-1625.5 858.97,-1636.51"/>
<text text-anchor="middle" x="548.31" y="-1646.45" font-family="Times,serif" font-size="14.00" fill="#ffffff">/Users/patrick/.local/state/nix/profiles/profile&#45;511&#45;link, today (16.7 MB)</text>
</g>
<!-- N7 -->
<g id="node82" class="node">
<title>N7</title>
<polygon fill="#caee34" stroke="#caee34" points="1739.12,-969.5 1597.87,-969.5 1597.87,-933.5 1739.12,-933.5 1739.12,-969.5"/>
<text text-anchor="middle" x="1668.5" y="-946.45" font-family="Times,serif" font-size="14.00" fill="#000000">gnugrep&#45;3.11 (3.7 GB)</text>
</g>
<!-- N86&#45;&gt;N7 -->
<g id="edge80" class="edge">
<title>N86&#45;&gt;N7</title>
<path fill="none" stroke="black" d="M859.41,-1653.29C1120.49,-1647.72 1466.23,-1621.39 1561.87,-1524.5 1639.12,-1446.25 1661.34,-1087.7 1666.29,-981.33"/>
<polygon fill="black" stroke="black" points="1669.78,-981.57 1666.73,-971.43 1662.79,-981.26 1669.78,-981.57"/>
</g>
<!-- N85 -->
<g id="node4" class="node">
<title>N85</title>
<polygon fill="#30123b" stroke="#30123b" points="731.86,-1574.05 731.86,-1588.96 624.34,-1599.5 472.28,-1599.5 364.76,-1588.96 364.76,-1574.05 472.28,-1563.5 624.34,-1563.5 731.86,-1574.05"/>
<polygon fill="none" stroke="#30123b" points="735.86,-1570.42 735.86,-1592.59 624.54,-1603.5 472.09,-1603.5 360.76,-1592.59 360.76,-1570.42 472.09,-1559.5 624.54,-1559.5 735.86,-1570.42"/>
<polygon fill="none" stroke="#30123b" points="739.86,-1566.79 739.86,-1596.21 624.73,-1607.5 471.89,-1607.5 356.76,-1596.21 356.76,-1566.79 471.89,-1555.5 624.73,-1555.5 739.86,-1566.79"/>
<text text-anchor="middle" x="548.31" y="-1576.45" font-family="Times,serif" font-size="14.00" fill="#ffffff">NixOS generation 236, 28d ago (82.9 KB)</text>
</g>
<!-- N85&#45;&gt;N7 -->
<g id="edge79" class="edge">
<title>N85&#45;&gt;N7</title>
<path fill="none" stroke="black" d="M740.35,-1584C1001.23,-1583.11 1449.45,-1564.8 1561.87,-1453.5 1629.85,-1386.2 1658.12,-1078.39 1665.46,-981.08"/>
<polygon fill="black" stroke="black" points="1668.93,-981.52 1666.17,-971.29 1661.95,-981.01 1668.93,-981.52"/>
</g>
<!-- N84 -->
<g id="node5" class="node">
<title>N84</title>
<polygon fill="#30123b" stroke="#30123b" points="878.11,-1504.05 878.11,-1518.96 684.92,-1529.5 411.7,-1529.5 218.51,-1518.96 218.51,-1504.05 411.7,-1493.5 684.92,-1493.5 878.11,-1504.05"/>
<polygon fill="none" stroke="#30123b" points="882.11,-1500.26 882.11,-1522.75 685.03,-1533.5 411.6,-1533.5 214.51,-1522.75 214.51,-1500.26 411.6,-1489.5 685.03,-1489.5 882.11,-1500.26"/>
<polygon fill="none" stroke="#30123b" points="886.11,-1496.47 886.11,-1526.53 685.14,-1537.5 411.49,-1537.5 210.51,-1526.53 210.51,-1496.47 411.49,-1485.5 685.14,-1485.5 886.11,-1496.47"/>
<text text-anchor="middle" x="548.31" y="-1506.45" font-family="Times,serif" font-size="14.00" fill="#ffffff">/Users/patrick/.local/state/nix/profiles/home&#45;manager&#45;218&#45;link, 28d ago (62 B)</text>
</g>
<!-- N84&#45;&gt;N7 -->
<g id="edge78" class="edge">
<title>N84&#45;&gt;N7</title>
<path fill="none" stroke="black" d="M886.41,-1510.51C1142.8,-1502.31 1467.15,-1473.43 1561.87,-1382.5 1620.6,-1326.14 1654.34,-1069.17 1664.34,-981.17"/>
<polygon fill="black" stroke="black" points="1667.79,-981.74 1665.42,-971.41 1660.84,-980.96 1667.79,-981.74"/>
</g>
<!-- N83 -->
<g id="node6" class="node">
<title>N83</title>
<polygon fill="#30123b" stroke="#30123b" points="735.19,-4514.05 735.19,-4528.96 625.72,-4539.5 470.91,-4539.5 361.44,-4528.96 361.44,-4514.05 470.91,-4503.5 625.72,-4503.5 735.19,-4514.05"/>
<polygon fill="none" stroke="#30123b" points="739.19,-4510.41 739.19,-4532.59 625.91,-4543.5 470.71,-4543.5 357.44,-4532.59 357.44,-4510.41 470.71,-4499.5 625.91,-4499.5 739.19,-4510.41"/>
<polygon fill="none" stroke="#30123b" points="743.19,-4506.78 743.19,-4536.22 626.1,-4547.5 470.52,-4547.5 353.44,-4536.22 353.44,-4506.78 470.52,-4495.5 626.1,-4495.5 743.19,-4506.78"/>
<text text-anchor="middle" x="548.31" y="-4516.45" font-family="Times,serif" font-size="14.00" fill="#ffffff">NixOS generation 211, 2m ago (126.0 KB)</text>
</g>
<!-- N83&#45;&gt;N13 -->
<g id="edge77" class="edge">
<title>N83&#45;&gt;N13</title>
<path fill="none" stroke="black" d="M743.46,-4534.81C880.32,-4539.57 1047.62,-4534.53 1096.62,-4486.5 1130.71,-4453.1 1122.8,-4105.2 1132.62,-4058.5 1182.28,-3822.48 1295.44,-3552.46 1333.5,-3465.25"/>
<polygon fill="black" stroke="black" points="1336.64,-3466.81 1337.45,-3456.24 1330.23,-3463.99 1336.64,-3466.81"/>
</g>
<!-- N82 -->
<g id="node7" class="node">
<title>N82</title>
<polygon fill="#30123b" stroke="#30123b" points="730.2,-4444.05 730.2,-4458.96 623.65,-4469.5 472.97,-4469.5 366.42,-4458.96 366.42,-4444.05 472.97,-4433.5 623.65,-4433.5 730.2,-4444.05"/>
<polygon fill="none" stroke="#30123b" points="734.2,-4440.42 734.2,-4462.58 623.85,-4473.5 472.77,-4473.5 362.42,-4462.58 362.42,-4440.42 472.77,-4429.5 623.85,-4429.5 734.2,-4440.42"/>
<polygon fill="none" stroke="#30123b" points="738.2,-4436.8 738.2,-4466.21 624.05,-4477.5 472.58,-4477.5 358.42,-4466.21 358.42,-4436.8 472.58,-4425.5 624.05,-4425.5 738.2,-4436.8"/>
<text text-anchor="middle" x="548.31" y="-4446.45" font-family="Times,serif" font-size="14.00" fill="#ffffff">NixOS generation 222, 2m ago (82.9 KB)</text>
</g>
<!-- N82&#45;&gt;N13 -->
<g id="edge76" class="edge">
<title>N82&#45;&gt;N13</title>
<path fill="none" stroke="black" d="M738.62,-4464.42C876.2,-4469.33 1046.68,-4464.67 1096.62,-4416.5 1154.18,-4361 1115.53,-4136.61 1132.62,-4058.5 1184.21,-3822.89 1296.12,-3552.6 1333.67,-3465.29"/>
<polygon fill="black" stroke="black" points="1336.82,-3466.84 1337.57,-3456.27 1330.39,-3464.06 1336.82,-3466.84"/>
</g>
<!-- N81 -->
<g id="node8" class="node">
<title>N81</title>
<polygon fill="#38276d" stroke="#38276d" points="860.94,-1434.05 860.94,-1448.96 677.81,-1459.5 418.82,-1459.5 235.68,-1448.96 235.68,-1434.05 418.82,-1423.5 677.81,-1423.5 860.94,-1434.05"/>
<polygon fill="none" stroke="#38276d" points="864.94,-1430.27 864.94,-1452.73 677.92,-1463.5 418.7,-1463.5 231.68,-1452.73 231.68,-1430.27 418.7,-1419.5 677.92,-1419.5 864.94,-1430.27"/>
<polygon fill="none" stroke="#38276d" points="868.94,-1426.49 868.94,-1456.51 678.04,-1467.5 418.59,-1467.5 227.68,-1456.51 227.68,-1426.49 418.59,-1415.5 678.04,-1415.5 868.94,-1426.49"/>
<text text-anchor="middle" x="548.31" y="-1436.45" font-family="Times,serif" font-size="14.00" fill="#ffffff">/Users/patrick/.local/state/nix/profiles/profile&#45;510&#45;link, 24d ago (11.3 MB)</text>
</g>
<!-- N81&#45;&gt;N7 -->
<g id="edge75" class="edge">
<title>N81&#45;&gt;N7</title>
<path fill="none" stroke="black" d="M869.29,-1439.59C1127.4,-1431.14 1463.16,-1402.25 1561.87,-1311.5 1658.68,-1222.51 1668.49,-1050 1668.31,-981.04"/>
<polygon fill="black" stroke="black" points="1671.82,-981.25 1668.21,-971.29 1664.82,-981.33 1671.82,-981.25"/>
</g>
<!-- N1 -->
<g id="node9" class="node">
<title>N1</title>
<polygon fill="#3af490" stroke="#3af490" points="1019.93,-5074.05 1019.93,-5088.96 743.66,-5099.5 352.96,-5099.5 76.69,-5088.96 76.69,-5074.05 352.96,-5063.5 743.66,-5063.5 1019.93,-5074.05"/>
<polygon fill="none" stroke="#3af490" points="1023.93,-5070.2 1023.93,-5092.81 743.74,-5103.5 352.88,-5103.5 72.69,-5092.81 72.69,-5070.2 352.88,-5059.5 743.74,-5059.5 1023.93,-5070.2"/>
<polygon fill="none" stroke="#3af490" points="1027.93,-5066.35 1027.93,-5096.66 743.82,-5107.5 352.81,-5107.5 68.69,-5096.66 68.69,-5066.35 352.81,-5055.5 743.82,-5055.5 1027.93,-5066.35"/>
<text text-anchor="middle" x="548.31" y="-5076.45" font-family="Times,serif" font-size="14.00" fill="#000000">/Users/patrick/source/qttest/.direnv/flake&#45;profile&#45;a5d5b61aa8a61b7d9d765e1daf971a9a578f1cfa, 2m ago (1.8 GB)</text>
</g>
<!-- N80 -->
<g id="node10" class="node">
<title>N80</title>
<polygon fill="#341b51" stroke="#341b51" points="727.43,-2274.05 727.43,-2288.96 622.51,-2299.5 474.12,-2299.5 369.19,-2288.96 369.19,-2274.05 474.12,-2263.5 622.51,-2263.5 727.43,-2274.05"/>
<polygon fill="none" stroke="#341b51" points="731.43,-2270.43 731.43,-2292.58 622.71,-2303.5 473.92,-2303.5 365.19,-2292.58 365.19,-2270.43 473.92,-2259.5 622.71,-2259.5 731.43,-2270.43"/>
<polygon fill="none" stroke="#341b51" points="735.43,-2266.81 735.43,-2296.19 622.91,-2307.5 473.72,-2307.5 361.19,-2296.19 361.19,-2266.81 473.72,-2255.5 622.91,-2255.5 735.43,-2266.81"/>
<text text-anchor="middle" x="548.31" y="-2276.45" font-family="Times,serif" font-size="14.00" fill="#ffffff">NixOS generation 202, 3m ago (2.5 MB)</text>
</g>
<!-- N8 -->
<g id="node83" class="node">
<title>N8</title>
<polygon fill="#f3c83a" stroke="#f3c83a" points="1561.87,-2054.5 1132.62,-2054.5 1132.62,-2018.5 1561.87,-2018.5 1561.87,-2054.5"/>
<text text-anchor="middle" x="1347.25" y="-2031.45" font-family="Times,serif" font-size="14.00" fill="#000000">shared:darwin&#45;system&#45;24.05.20240312.7eeacec+darwin4.d9ea313 (4.8 GB)</text>
</g>
<!-- N80&#45;&gt;N8 -->
<g id="edge73" class="edge">
<title>N80&#45;&gt;N8</title>
<path fill="none" stroke="black" d="M725.55,-2297.69C835.97,-2301.27 979.1,-2293.67 1096.62,-2246.5 1196.16,-2206.56 1285.03,-2110.79 1324.55,-2063.65"/>
<polygon fill="black" stroke="black" points="1327.15,-2066.01 1330.82,-2056.07 1321.75,-2061.55 1327.15,-2066.01"/>
</g>
<!-- N14 -->
<g id="node89" class="node">
<title>N14</title>
<polygon fill="#5ffc6e" stroke="#5ffc6e" points="1513.12,-2369.5 1181.37,-2369.5 1181.37,-2333.5 1513.12,-2333.5 1513.12,-2369.5"/>
<text text-anchor="middle" x="1347.25" y="-2346.45" font-family="Times,serif" font-size="14.00" fill="#000000">shared:flutter&#45;artifacts&#45;universal&#45;aarch64&#45;darwin (2.1 GB)</text>
</g>
<!-- N80&#45;&gt;N14 -->
<g id="edge72" class="edge">
<title>N80&#45;&gt;N14</title>
<path fill="none" stroke="black" d="M735.79,-2289.93C841.76,-2295.6 976.8,-2304.29 1096.62,-2316.5 1135.65,-2320.48 1177.96,-2325.97 1216.46,-2331.41"/>
<polygon fill="black" stroke="black" points="1215.86,-2334.86 1226.25,-2332.81 1216.84,-2327.93 1215.86,-2334.86"/>
</g>
<!-- N79 -->
<g id="node11" class="node">
<title>N79</title>
<polygon fill="#30123b" stroke="#30123b" points="843.77,-1364.05 843.77,-1378.96 670.69,-1389.5 425.93,-1389.5 252.86,-1378.96 252.86,-1364.05 425.93,-1353.5 670.69,-1353.5 843.77,-1364.05"/>
<polygon fill="none" stroke="#30123b" points="847.77,-1360.28 847.77,-1382.72 670.82,-1393.5 425.81,-1393.5 248.86,-1382.72 248.86,-1360.28 425.81,-1349.5 670.82,-1349.5 847.77,-1360.28"/>
<polygon fill="none" stroke="#30123b" points="851.77,-1356.52 851.77,-1386.49 670.94,-1397.5 425.69,-1397.5 244.86,-1386.49 244.86,-1356.52 425.69,-1345.5 670.94,-1345.5 851.77,-1356.52"/>
<text text-anchor="middle" x="548.31" y="-1366.45" font-family="Times,serif" font-size="14.00" fill="#ffffff">/Users/patrick/.local/state/nix/profiles/profile&#45;506&#45;link, 24d ago (57 B)</text>
</g>
<!-- N79&#45;&gt;N7 -->
<g id="edge71" class="edge">
<title>N79&#45;&gt;N7</title>
<path fill="none" stroke="black" d="M852,-1369.19C1111.07,-1360.89 1458.16,-1332.74 1561.87,-1243.5 1641.78,-1174.75 1661.24,-1040.68 1665.98,-981.18"/>
<polygon fill="black" stroke="black" points="1669.45,-981.71 1666.66,-971.49 1662.47,-981.23 1669.45,-981.71"/>
</g>
<!-- N78 -->
<g id="node12" class="node">
<title>N78</title>
<polygon fill="#321543" stroke="#321543" points="863.71,-1294.05 863.71,-1308.96 678.95,-1319.5 417.67,-1319.5 232.91,-1308.96 232.91,-1294.05 417.67,-1283.5 678.95,-1283.5 863.71,-1294.05"/>
<polygon fill="none" stroke="#321543" points="867.71,-1290.27 867.71,-1312.74 679.07,-1323.5 417.56,-1323.5 228.91,-1312.74 228.91,-1290.27 417.56,-1279.5 679.07,-1279.5 867.71,-1290.27"/>
<polygon fill="none" stroke="#321543" points="871.71,-1286.49 871.71,-1316.51 679.18,-1327.5 417.44,-1327.5 224.91,-1316.51 224.91,-1286.49 417.44,-1275.5 679.18,-1275.5 871.71,-1286.49"/>
<text text-anchor="middle" x="548.31" y="-1296.45" font-family="Times,serif" font-size="14.00" fill="#ffffff">/Users/patrick/.local/state/nix/profiles/profile&#45;508&#45;link, 24d ago (610.9 KB)</text>
</g>
<!-- N78&#45;&gt;N7 -->
<g id="edge70" class="edge">
<title>N78&#45;&gt;N7</title>
<path fill="none" stroke="black" d="M872.12,-1297.66C1127.15,-1288.29 1457,-1260.08 1561.87,-1178.5 1626.22,-1128.45 1652.97,-1029.91 1662.68,-980.79"/>
<polygon fill="black" stroke="black" points="1666.08,-981.66 1664.47,-971.18 1659.2,-980.37 1666.08,-981.66"/>
</g>
<!-- N77 -->
<g id="node13" class="node">
<title>N77</title>
<polygon fill="#30123b" stroke="#30123b" points="730.2,-2134.05 730.2,-2148.96 623.65,-2159.5 472.97,-2159.5 366.42,-2148.96 366.42,-2134.05 472.97,-2123.5 623.65,-2123.5 730.2,-2134.05"/>
<polygon fill="none" stroke="#30123b" points="734.2,-2130.42 734.2,-2152.58 623.85,-2163.5 472.77,-2163.5 362.42,-2152.58 362.42,-2130.42 472.77,-2119.5 623.85,-2119.5 734.2,-2130.42"/>
<polygon fill="none" stroke="#30123b" points="738.2,-2126.8 738.2,-2156.21 624.05,-2167.5 472.58,-2167.5 358.42,-2156.21 358.42,-2126.8 472.58,-2115.5 624.05,-2115.5 738.2,-2126.8"/>
<text text-anchor="middle" x="548.31" y="-2136.45" font-family="Times,serif" font-size="14.00" fill="#ffffff">NixOS generation 195, 3m ago (82.9 KB)</text>
</g>
<!-- N77&#45;&gt;N8 -->
<g id="edge69" class="edge">
<title>N77&#45;&gt;N8</title>
<path fill="none" stroke="black" d="M738.52,-2139.15C844.46,-2135.4 978.59,-2126.6 1096.62,-2106.5 1160.9,-2095.56 1232.37,-2074.58 1282.31,-2058.44"/>
<polygon fill="black" stroke="black" points="1283.08,-2061.87 1291.5,-2055.44 1280.91,-2055.21 1283.08,-2061.87"/>
</g>
<!-- N76 -->
<g id="node14" class="node">
<title>N76</title>
<polygon fill="#30123b" stroke="#30123b" points="730.2,-4374.05 730.2,-4388.96 623.65,-4399.5 472.97,-4399.5 366.42,-4388.96 366.42,-4374.05 472.97,-4363.5 623.65,-4363.5 730.2,-4374.05"/>
<polygon fill="none" stroke="#30123b" points="734.2,-4370.42 734.2,-4392.58 623.85,-4403.5 472.77,-4403.5 362.42,-4392.58 362.42,-4370.42 472.77,-4359.5 623.85,-4359.5 734.2,-4370.42"/>
<polygon fill="none" stroke="#30123b" points="738.2,-4366.8 738.2,-4396.21 624.05,-4407.5 472.58,-4407.5 358.42,-4396.21 358.42,-4366.8 472.58,-4355.5 624.05,-4355.5 738.2,-4366.8"/>
<text text-anchor="middle" x="548.31" y="-4376.45" font-family="Times,serif" font-size="14.00" fill="#ffffff">NixOS generation 219, 2m ago (82.9 KB)</text>
</g>
<!-- N76&#45;&gt;N13 -->
<g id="edge68" class="edge">
<title>N76&#45;&gt;N13</title>
<path fill="none" stroke="black" d="M738.65,-4394.09C875.99,-4398.8 1046.14,-4394.02 1096.62,-4346.5 1143.59,-4302.3 1118.07,-4121.34 1132.62,-4058.5 1187.04,-3823.53 1297.11,-3552.83 1333.93,-3465.35"/>
<polygon fill="black" stroke="black" points="1337.08,-3466.89 1337.75,-3456.31 1330.63,-3464.16 1337.08,-3466.89"/>
</g>
<!-- N2 -->
<g id="node15" class="node">
<title>N2</title>
<polygon fill="#33f296" stroke="#33f296" points="1022.7,-5144.05 1022.7,-5158.96 744.81,-5169.5 351.81,-5169.5 73.92,-5158.96 73.92,-5144.05 351.81,-5133.5 744.81,-5133.5 1022.7,-5144.05"/>
<polygon fill="none" stroke="#33f296" points="1026.7,-5140.2 1026.7,-5162.81 744.89,-5173.5 351.74,-5173.5 69.92,-5162.81 69.92,-5140.2 351.74,-5129.5 744.89,-5129.5 1026.7,-5140.2"/>
<polygon fill="none" stroke="#33f296" points="1030.7,-5136.34 1030.7,-5166.66 744.96,-5177.5 351.66,-5177.5 65.92,-5166.66 65.92,-5136.34 351.66,-5125.5 744.96,-5125.5 1030.7,-5136.34"/>
<text text-anchor="middle" x="548.31" y="-5146.45" font-family="Times,serif" font-size="14.00" fill="#000000">/Users/patrick/source/server/.direnv/flake&#45;profile&#45;a5d5b61aa8a61b7d9d765e1daf971a9a578f1cfa, 7m ago (1.7 GB)</text>
</g>
<!-- N75 -->
<g id="node16" class="node">
<title>N75</title>
<polygon fill="#30123b" stroke="#30123b" points="731.86,-1224.05 731.86,-1238.96 624.34,-1249.5 472.28,-1249.5 364.76,-1238.96 364.76,-1224.05 472.28,-1213.5 624.34,-1213.5 731.86,-1224.05"/>
<polygon fill="none" stroke="#30123b" points="735.86,-1220.42 735.86,-1242.59 624.54,-1253.5 472.09,-1253.5 360.76,-1242.59 360.76,-1220.42 472.09,-1209.5 624.54,-1209.5 735.86,-1220.42"/>
<polygon fill="none" stroke="#30123b" points="739.86,-1216.79 739.86,-1246.21 624.73,-1257.5 471.89,-1257.5 356.76,-1246.21 356.76,-1216.79 471.89,-1205.5 624.73,-1205.5 739.86,-1216.79"/>
<text text-anchor="middle" x="548.31" y="-1226.45" font-family="Times,serif" font-size="14.00" fill="#ffffff">NixOS generation 238, 28d ago (50.7 KB)</text>
</g>
<!-- N75&#45;&gt;N7 -->
<g id="edge67" class="edge">
<title>N75&#45;&gt;N7</title>
<path fill="none" stroke="black" d="M740.21,-1230.64C995.51,-1226.08 1431.21,-1205.32 1561.87,-1118.5 1612.2,-1085.07 1643.27,-1018.6 1657.76,-980.37"/>
<polygon fill="black" stroke="black" points="1660.91,-981.95 1661.05,-971.36 1654.34,-979.55 1660.91,-981.95"/>
</g>
<!-- N74 -->
<g id="node17" class="node">
<title>N74</title>
<polygon fill="#341b51" stroke="#341b51" points="727.43,-4304.05 727.43,-4318.96 622.51,-4329.5 474.12,-4329.5 369.19,-4318.96 369.19,-4304.05 474.12,-4293.5 622.51,-4293.5 727.43,-4304.05"/>
<polygon fill="none" stroke="#341b51" points="731.43,-4300.43 731.43,-4322.58 622.71,-4333.5 473.92,-4333.5 365.19,-4322.58 365.19,-4300.43 473.92,-4289.5 622.71,-4289.5 731.43,-4300.43"/>
<polygon fill="none" stroke="#341b51" points="735.43,-4296.81 735.43,-4326.19 622.91,-4337.5 473.72,-4337.5 361.19,-4326.19 361.19,-4296.81 473.72,-4285.5 622.91,-4285.5 735.43,-4296.81"/>
<text text-anchor="middle" x="548.31" y="-4306.45" font-family="Times,serif" font-size="14.00" fill="#ffffff">NixOS generation 220, 2m ago (2.6 MB)</text>
</g>
<!-- N74&#45;&gt;N13 -->
<g id="edge66" class="edge">
<title>N74&#45;&gt;N13</title>
<path fill="none" stroke="black" d="M735.67,-4323.45C873.15,-4328 1044.91,-4323.3 1096.62,-4276.5 1133.03,-4243.56 1120.61,-4106.11 1132.62,-4058.5 1191.65,-3824.65 1298.72,-3553.22 1334.36,-3465.45"/>
<polygon fill="black" stroke="black" points="1337.52,-3466.97 1338.05,-3456.39 1331.03,-3464.33 1337.52,-3466.97"/>
</g>
<!-- N73 -->
<g id="node18" class="node">
<title>N73</title>
<polygon fill="#30123b" stroke="#30123b" points="705.27,-1154.05 705.27,-1168.96 613.33,-1179.5 483.3,-1179.5 391.35,-1168.96 391.35,-1154.05 483.3,-1143.5 613.33,-1143.5 705.27,-1154.05"/>
<polygon fill="none" stroke="#30123b" points="709.27,-1150.48 709.27,-1172.53 613.56,-1183.5 483.07,-1183.5 387.35,-1172.53 387.35,-1150.48 483.07,-1139.5 613.56,-1139.5 709.27,-1150.48"/>
<polygon fill="none" stroke="#30123b" points="713.27,-1146.91 713.27,-1176.09 613.78,-1187.5 482.84,-1187.5 383.35,-1176.09 383.35,-1146.91 482.84,-1135.5 613.78,-1135.5 713.27,-1146.91"/>
<text text-anchor="middle" x="548.31" y="-1156.45" font-family="Times,serif" font-size="14.00" fill="#ffffff">/run/current&#45;system, 28d ago (19 B)</text>
</g>
<!-- N73&#45;&gt;N7 -->
<g id="edge65" class="edge">
<title>N73&#45;&gt;N7</title>
<path fill="none" stroke="black" d="M713.66,-1175.22C921.92,-1185.58 1286.85,-1179.82 1561.87,-1046.5 1595.23,-1030.33 1625.83,-1000.41 1645.41,-978.45"/>
<polygon fill="black" stroke="black" points="1647.94,-980.87 1651.86,-971.03 1642.66,-976.28 1647.94,-980.87"/>
</g>
<!-- N72 -->
<g id="node19" class="node">
<title>N72</title>
<polygon fill="#30123b" stroke="#30123b" points="731.86,-1084.05 731.86,-1098.96 624.34,-1109.5 472.28,-1109.5 364.76,-1098.96 364.76,-1084.05 472.28,-1073.5 624.34,-1073.5 731.86,-1084.05"/>
<polygon fill="none" stroke="#30123b" points="735.86,-1080.42 735.86,-1102.59 624.54,-1113.5 472.09,-1113.5 360.76,-1102.59 360.76,-1080.42 472.09,-1069.5 624.54,-1069.5 735.86,-1080.42"/>
<polygon fill="none" stroke="#30123b" points="739.86,-1076.79 739.86,-1106.21 624.73,-1117.5 471.89,-1117.5 356.76,-1106.21 356.76,-1076.79 471.89,-1065.5 624.73,-1065.5 739.86,-1076.79"/>
<text text-anchor="middle" x="548.31" y="-1086.45" font-family="Times,serif" font-size="14.00" fill="#ffffff">NixOS generation 241, 28d ago (50.7 KB)</text>
</g>
<!-- N72&#45;&gt;N7 -->
<g id="edge64" class="edge">
<title>N72&#45;&gt;N7</title>
<path fill="none" stroke="black" d="M740.22,-1092.32C946.33,-1088.87 1282.63,-1070.55 1561.87,-995.5 1581.35,-990.27 1601.99,-982.27 1619.8,-974.52"/>
<polygon fill="black" stroke="black" points="1621.12,-977.76 1628.83,-970.49 1618.27,-971.37 1621.12,-977.76"/>
</g>
<!-- N71 -->
<g id="node20" class="node">
<title>N71</title>
<polygon fill="#30123b" stroke="#30123b" points="881.44,-1014.05 881.44,-1028.96 686.3,-1039.5 410.33,-1039.5 215.19,-1028.96 215.19,-1014.05 410.33,-1003.5 686.3,-1003.5 881.44,-1014.05"/>
<polygon fill="none" stroke="#30123b" points="885.44,-1010.26 885.44,-1032.75 686.41,-1043.5 410.22,-1043.5 211.19,-1032.75 211.19,-1010.26 410.22,-999.5 686.41,-999.5 885.44,-1010.26"/>
<polygon fill="none" stroke="#30123b" points="889.44,-1006.47 889.44,-1036.54 686.51,-1047.5 410.11,-1047.5 207.19,-1036.54 207.19,-1006.47 410.11,-995.5 686.51,-995.5 889.44,-1006.47"/>
<text text-anchor="middle" x="548.31" y="-1016.45" font-family="Times,serif" font-size="14.00" fill="#ffffff">/Users/patrick/.local/state/home&#45;manager/gcroots/current&#45;home, 28d ago (61 B)</text>
</g>
<!-- N71&#45;&gt;N7 -->
<g id="edge63" class="edge">
<title>N71&#45;&gt;N7</title>
<path fill="none" stroke="black" d="M889.91,-1009.17C1086.59,-1000.42 1338.49,-986.45 1561.87,-965.5 1569.79,-964.76 1578.02,-963.87 1586.24,-962.91"/>
<polygon fill="black" stroke="black" points="1586.41,-966.42 1595.91,-961.74 1585.57,-959.47 1586.41,-966.42"/>
</g>
<!-- N70 -->
<g id="node21" class="node">
<title>N70</title>
<polygon fill="#30123b" stroke="#30123b" points="893.07,-944.05 893.07,-958.96 691.12,-969.5 405.51,-969.5 203.55,-958.96 203.55,-944.05 405.51,-933.5 691.12,-933.5 893.07,-944.05"/>
<polygon fill="none" stroke="#30123b" points="897.07,-940.25 897.07,-962.75 691.22,-973.5 405.4,-973.5 199.55,-962.75 199.55,-940.25 405.4,-929.5 691.22,-929.5 897.07,-940.25"/>
<polygon fill="none" stroke="#30123b" points="901.07,-936.45 901.07,-966.55 691.32,-977.5 405.3,-977.5 195.55,-966.55 195.55,-936.45 405.3,-925.5 691.32,-925.5 901.07,-936.45"/>
<text text-anchor="middle" x="548.31" y="-946.45" font-family="Times,serif" font-size="14.00" fill="#ffffff">/Users/patrick/.local/state/nix/profiles/home&#45;manager&#45;222&#45;link, 28d ago (44.5 KB)</text>
</g>
<!-- N70&#45;&gt;N7 -->
<g id="edge62" class="edge">
<title>N70&#45;&gt;N7</title>
<path fill="none" stroke="black" d="M901.2,-951.5C1142.75,-951.5 1444.41,-951.5 1586.43,-951.5"/>
<polygon fill="black" stroke="black" points="1586.1,-955 1596.1,-951.5 1586.1,-948 1586.1,-955"/>
</g>
<!-- N69 -->
<g id="node22" class="node">
<title>N69</title>
<polygon fill="#30123b" stroke="#30123b" points="730.2,-4234.05 730.2,-4248.96 623.65,-4259.5 472.97,-4259.5 366.42,-4248.96 366.42,-4234.05 472.97,-4223.5 623.65,-4223.5 730.2,-4234.05"/>
<polygon fill="none" stroke="#30123b" points="734.2,-4230.42 734.2,-4252.58 623.85,-4263.5 472.77,-4263.5 362.42,-4252.58 362.42,-4230.42 472.77,-4219.5 623.85,-4219.5 734.2,-4230.42"/>
<polygon fill="none" stroke="#30123b" points="738.2,-4226.8 738.2,-4256.21 624.05,-4267.5 472.58,-4267.5 358.42,-4256.21 358.42,-4226.8 472.58,-4215.5 624.05,-4215.5 738.2,-4226.8"/>
<text text-anchor="middle" x="548.31" y="-4236.45" font-family="Times,serif" font-size="14.00" fill="#ffffff">NixOS generation 224, 2m ago (82.9 KB)</text>
</g>
<!-- N69&#45;&gt;N13 -->
<g id="edge61" class="edge">
<title>N69&#45;&gt;N13</title>
<path fill="none" stroke="black" d="M738.59,-4252.48C874.89,-4256.21 1043.69,-4250.91 1096.62,-4206.5 1148.49,-4162.99 1113.61,-4123.47 1132.62,-4058.5 1200.38,-3827 1301.79,-3553.98 1335.17,-3465.64"/>
<polygon fill="black" stroke="black" points="1338.44,-3466.88 1338.71,-3456.29 1331.89,-3464.4 1338.44,-3466.88"/>
</g>
<!-- N68 -->
<g id="node23" class="node">
<title>N68</title>
<polygon fill="#30123b" stroke="#30123b" points="730.2,-4934.05 730.2,-4948.96 623.65,-4959.5 472.97,-4959.5 366.42,-4948.96 366.42,-4934.05 472.97,-4923.5 623.65,-4923.5 730.2,-4934.05"/>
<polygon fill="none" stroke="#30123b" points="734.2,-4930.42 734.2,-4952.58 623.85,-4963.5 472.77,-4963.5 362.42,-4952.58 362.42,-4930.42 472.77,-4919.5 623.85,-4919.5 734.2,-4930.42"/>
<polygon fill="none" stroke="#30123b" points="738.2,-4926.8 738.2,-4956.21 624.05,-4967.5 472.58,-4967.5 358.42,-4956.21 358.42,-4926.8 472.58,-4915.5 624.05,-4915.5 738.2,-4926.8"/>
<text text-anchor="middle" x="548.31" y="-4936.45" font-family="Times,serif" font-size="14.00" fill="#ffffff">NixOS generation 191, 3m ago (94.9 KB)</text>
</g>
<!-- N9 -->
<g id="node84" class="node">
<title>N9</title>
<polygon fill="#9afe41" stroke="#9afe41" points="1561.87,-4799.5 1132.62,-4799.5 1132.62,-4763.5 1561.87,-4763.5 1561.87,-4799.5"/>
<text text-anchor="middle" x="1347.25" y="-4776.45" font-family="Times,serif" font-size="14.00" fill="#000000">shared:darwin&#45;system&#45;24.05.20240302.fa9a517+darwin4.17c2ca3 (2.8 GB)</text>
</g>
<!-- N68&#45;&gt;N9 -->
<g id="edge59" class="edge">
<title>N68&#45;&gt;N9</title>
<path fill="none" stroke="black" d="M738.52,-4947.83C845.35,-4946.85 980.35,-4937.94 1096.62,-4906.5 1177.22,-4884.71 1262.37,-4835.66 1309.46,-4805.89"/>
<polygon fill="black" stroke="black" points="1311.09,-4809 1317.64,-4800.66 1307.32,-4803.1 1311.09,-4809"/>
</g>
<!-- N67 -->
<g id="node24" class="node">
<title>N67</title>
<polygon fill="#321543" stroke="#321543" points="863.71,-874.05 863.71,-888.96 678.95,-899.5 417.67,-899.5 232.91,-888.96 232.91,-874.05 417.67,-863.5 678.95,-863.5 863.71,-874.05"/>
<polygon fill="none" stroke="#321543" points="867.71,-870.27 867.71,-892.74 679.07,-903.5 417.56,-903.5 228.91,-892.74 228.91,-870.27 417.56,-859.5 679.07,-859.5 867.71,-870.27"/>
<polygon fill="none" stroke="#321543" points="871.71,-866.49 871.71,-896.51 679.18,-907.5 417.44,-907.5 224.91,-896.51 224.91,-866.49 417.44,-855.5 679.18,-855.5 871.71,-866.49"/>
<text text-anchor="middle" x="548.31" y="-876.45" font-family="Times,serif" font-size="14.00" fill="#ffffff">/Users/patrick/.local/state/nix/profiles/profile&#45;497&#45;link, 28d ago (622.5 KB)</text>
</g>
<!-- N67&#45;&gt;N7 -->
<g id="edge58" class="edge">
<title>N67&#45;&gt;N7</title>
<path fill="none" stroke="black" d="M832.56,-899.23C1082.37,-914.87 1430.2,-936.65 1586.17,-946.41"/>
<polygon fill="black" stroke="black" points="1585.81,-949.9 1596.01,-947.03 1586.25,-942.91 1585.81,-949.9"/>
</g>
<!-- N66 -->
<g id="node25" class="node">
<title>N66</title>
<polygon fill="#30123b" stroke="#30123b" points="730.2,-4164.05 730.2,-4178.96 623.65,-4189.5 472.97,-4189.5 366.42,-4178.96 366.42,-4164.05 472.97,-4153.5 623.65,-4153.5 730.2,-4164.05"/>
<polygon fill="none" stroke="#30123b" points="734.2,-4160.42 734.2,-4182.58 623.85,-4193.5 472.77,-4193.5 362.42,-4182.58 362.42,-4160.42 472.77,-4149.5 623.85,-4149.5 734.2,-4160.42"/>
<polygon fill="none" stroke="#30123b" points="738.2,-4156.8 738.2,-4186.21 624.05,-4197.5 472.58,-4197.5 358.42,-4186.21 358.42,-4156.8 472.58,-4145.5 624.05,-4145.5 738.2,-4156.8"/>
<text text-anchor="middle" x="548.31" y="-4166.45" font-family="Times,serif" font-size="14.00" fill="#ffffff">NixOS generation 232, 2m ago (82.9 KB)</text>
</g>
<!-- N66&#45;&gt;N13 -->
<g id="edge57" class="edge">
<title>N66&#45;&gt;N13</title>
<path fill="none" stroke="black" d="M738.39,-4180.92C873.82,-4183.75 1041.6,-4177.99 1096.62,-4136.5 1111.06,-4125.62 1291.72,-3596.75 1336.34,-3465.66"/>
<polygon fill="black" stroke="black" points="1339.6,-3466.93 1339.51,-3456.34 1332.98,-3464.68 1339.6,-3466.93"/>
</g>
<!-- N3 -->
<g id="node26" class="node">
<title>N3</title>
<polygon fill="#28eea3" stroke="#28eea3" points="1032.67,-5214.05 1032.67,-5228.96 748.94,-5239.5 347.68,-5239.5 63.95,-5228.96 63.95,-5214.05 347.68,-5203.5 748.94,-5203.5 1032.67,-5214.05"/>
<polygon fill="none" stroke="#28eea3" points="1036.67,-5210.19 1036.67,-5232.81 749.02,-5243.5 347.61,-5243.5 59.95,-5232.81 59.95,-5210.19 347.61,-5199.5 749.02,-5199.5 1036.67,-5210.19"/>
<polygon fill="none" stroke="#28eea3" points="1040.67,-5206.34 1040.67,-5236.67 749.09,-5247.5 347.53,-5247.5 55.95,-5236.67 55.95,-5206.34 347.53,-5195.5 749.09,-5195.5 1040.67,-5206.34"/>
<text text-anchor="middle" x="548.31" y="-5216.45" font-family="Times,serif" font-size="14.00" fill="#000000">/Users/patrick/source/uoa&#45;oop/.direnv/flake&#45;profile&#45;a5d5b61aa8a61b7d9d765e1daf971a9a578f1cfa, 27d ago (1.5 GB)</text>
</g>
<!-- N65 -->
<g id="node27" class="node">
<title>N65</title>
<polygon fill="#341b51" stroke="#341b51" points="727.43,-4094.05 727.43,-4108.96 622.51,-4119.5 474.12,-4119.5 369.19,-4108.96 369.19,-4094.05 474.12,-4083.5 622.51,-4083.5 727.43,-4094.05"/>
<polygon fill="none" stroke="#341b51" points="731.43,-4090.43 731.43,-4112.58 622.71,-4123.5 473.92,-4123.5 365.19,-4112.58 365.19,-4090.43 473.92,-4079.5 622.71,-4079.5 731.43,-4090.43"/>
<polygon fill="none" stroke="#341b51" points="735.43,-4086.81 735.43,-4116.19 622.91,-4127.5 473.72,-4127.5 361.19,-4116.19 361.19,-4086.81 473.72,-4075.5 622.91,-4075.5 735.43,-4086.81"/>
<text text-anchor="middle" x="548.31" y="-4096.45" font-family="Times,serif" font-size="14.00" fill="#ffffff">NixOS generation 233, 1m ago (2.4 MB)</text>
</g>
<!-- N65&#45;&gt;N13 -->
<g id="edge56" class="edge">
<title>N65&#45;&gt;N13</title>
<path fill="none" stroke="black" d="M735.88,-4110.34C871.46,-4112.98 1040.6,-4107.24 1096.62,-4066.5 1302.58,-3916.74 1338.72,-3569.85 1344.96,-3466.24"/>
<polygon fill="black" stroke="black" points="1348.45,-3466.53 1345.5,-3456.35 1341.46,-3466.15 1348.45,-3466.53"/>
</g>
<!-- N64 -->
<g id="node28" class="node">
<title>N64</title>
<polygon fill="#30123b" stroke="#30123b" points="735.19,-4024.05 735.19,-4038.96 625.72,-4049.5 470.91,-4049.5 361.44,-4038.96 361.44,-4024.05 470.91,-4013.5 625.72,-4013.5 735.19,-4024.05"/>
<polygon fill="none" stroke="#30123b" points="739.19,-4020.41 739.19,-4042.59 625.91,-4053.5 470.71,-4053.5 357.44,-4042.59 357.44,-4020.41 470.71,-4009.5 625.91,-4009.5 739.19,-4020.41"/>
<polygon fill="none" stroke="#30123b" points="743.19,-4016.78 743.19,-4046.22 626.1,-4057.5 470.52,-4057.5 353.44,-4046.22 353.44,-4016.78 470.52,-4005.5 626.1,-4005.5 743.19,-4016.78"/>
<text text-anchor="middle" x="548.31" y="-4026.45" font-family="Times,serif" font-size="14.00" fill="#ffffff">NixOS generation 234, 1m ago (148.4 KB)</text>
</g>
<!-- N64&#45;&gt;N13 -->
<g id="edge55" class="edge">
<title>N64&#45;&gt;N13</title>
<path fill="none" stroke="black" d="M743.47,-4039.8C877.37,-4041.7 1040.88,-4035.27 1096.62,-3996.5 1283.72,-3866.39 1332.47,-3562.24 1343.41,-3466.15"/>
<polygon fill="black" stroke="black" points="1346.86,-3466.81 1344.46,-3456.5 1339.9,-3466.06 1346.86,-3466.81"/>
</g>
<!-- N63 -->
<g id="node29" class="node">
<title>N63</title>
<polygon fill="#30123b" stroke="#30123b" points="730.2,-4864.05 730.2,-4878.96 623.65,-4889.5 472.97,-4889.5 366.42,-4878.96 366.42,-4864.05 472.97,-4853.5 623.65,-4853.5 730.2,-4864.05"/>
<polygon fill="none" stroke="#30123b" points="734.2,-4860.42 734.2,-4882.58 623.85,-4893.5 472.77,-4893.5 362.42,-4882.58 362.42,-4860.42 472.77,-4849.5 623.85,-4849.5 734.2,-4860.42"/>
<polygon fill="none" stroke="#30123b" points="738.2,-4856.8 738.2,-4886.21 624.05,-4897.5 472.58,-4897.5 358.42,-4886.21 358.42,-4856.8 472.58,-4845.5 624.05,-4845.5 738.2,-4856.8"/>
<text text-anchor="middle" x="548.31" y="-4866.45" font-family="Times,serif" font-size="14.00" fill="#ffffff">NixOS generation 192, 3m ago (82.9 KB)</text>
</g>
<!-- N63&#45;&gt;N9 -->
<g id="edge54" class="edge">
<title>N63&#45;&gt;N9</title>
<path fill="none" stroke="black" d="M738.43,-4866.54C844.19,-4861.98 978.19,-4853.24 1096.62,-4836.5 1153.39,-4828.48 1216.43,-4814.55 1264.96,-4802.72"/>
<polygon fill="black" stroke="black" points="1265.68,-4806.14 1274.56,-4800.35 1264.01,-4799.34 1265.68,-4806.14"/>
</g>
<!-- N62 -->
<g id="node30" class="node">
<title>N62</title>
<polygon fill="#30123b" stroke="#30123b" points="730.2,-2484.05 730.2,-2498.96 623.65,-2509.5 472.97,-2509.5 366.42,-2498.96 366.42,-2484.05 472.97,-2473.5 623.65,-2473.5 730.2,-2484.05"/>
<polygon fill="none" stroke="#30123b" points="734.2,-2480.42 734.2,-2502.58 623.85,-2513.5 472.77,-2513.5 362.42,-2502.58 362.42,-2480.42 472.77,-2469.5 623.85,-2469.5 734.2,-2480.42"/>
<polygon fill="none" stroke="#30123b" points="738.2,-2476.8 738.2,-2506.21 624.05,-2517.5 472.58,-2517.5 358.42,-2506.21 358.42,-2476.8 472.58,-2465.5 624.05,-2465.5 738.2,-2476.8"/>
<text text-anchor="middle" x="548.31" y="-2486.45" font-family="Times,serif" font-size="14.00" fill="#ffffff">NixOS generation 205, 3m ago (82.9 KB)</text>
</g>
<!-- N62&#45;&gt;N13 -->
<g id="edge53" class="edge">
<title>N62&#45;&gt;N13</title>
<path fill="none" stroke="black" d="M738.58,-2480.95C874.62,-2477.47 1043.1,-2482.91 1096.62,-2526.5 1240.26,-2643.48 1324.93,-3263.99 1342.72,-3407.06"/>
<polygon fill="black" stroke="black" points="1339.23,-3407.33 1343.92,-3416.82 1346.17,-3406.47 1339.23,-3407.33"/>
</g>
<!-- N62&#45;&gt;N14 -->
<g id="edge52" class="edge">
<title>N62&#45;&gt;N14</title>
<path fill="none" stroke="black" d="M738.4,-2494.85C844.9,-2492.91 979.61,-2484.03 1096.62,-2456.5 1172.09,-2438.75 1253.91,-2400.3 1302.59,-2375.19"/>
<polygon fill="black" stroke="black" points="1304.16,-2378.31 1311.41,-2370.58 1300.92,-2372.11 1304.16,-2378.31"/>
</g>
<!-- N61 -->
<g id="node31" class="node">
<title>N61</title>
<polygon fill="#30123b" stroke="#30123b" points="730.2,-3954.05 730.2,-3968.96 623.65,-3979.5 472.97,-3979.5 366.42,-3968.96 366.42,-3954.05 472.97,-3943.5 623.65,-3943.5 730.2,-3954.05"/>
<polygon fill="none" stroke="#30123b" points="734.2,-3950.42 734.2,-3972.58 623.85,-3983.5 472.77,-3983.5 362.42,-3972.58 362.42,-3950.42 472.77,-3939.5 623.85,-3939.5 734.2,-3950.42"/>
<polygon fill="none" stroke="#30123b" points="738.2,-3946.8 738.2,-3976.21 624.05,-3987.5 472.58,-3987.5 358.42,-3976.21 358.42,-3946.8 472.58,-3935.5 624.05,-3935.5 738.2,-3946.8"/>
<text text-anchor="middle" x="548.31" y="-3956.45" font-family="Times,serif" font-size="14.00" fill="#ffffff">NixOS generation 217, 2m ago (82.9 KB)</text>
</g>
<!-- N61&#45;&gt;N13 -->
<g id="edge51" class="edge">
<title>N61&#45;&gt;N13</title>
<path fill="none" stroke="black" d="M738.69,-3968.89C873.05,-3970.55 1039.3,-3964.2 1096.62,-3926.5 1264.99,-3815.77 1325.42,-3554.53 1341.44,-3466.25"/>
<polygon fill="black" stroke="black" points="1344.88,-3466.92 1343.15,-3456.46 1337.98,-3465.71 1344.88,-3466.92"/>
</g>
<!-- N60 -->
<g id="node32" class="node">
<title>N60</title>
<polygon fill="#4685fa" stroke="#4685fa" points="737.4,-4654.05 737.4,-4668.96 626.64,-4679.5 469.99,-4679.5 359.22,-4668.96 359.22,-4654.05 469.99,-4643.5 626.64,-4643.5 737.4,-4654.05"/>
<polygon fill="none" stroke="#4685fa" points="741.4,-4650.41 741.4,-4672.6 626.83,-4683.5 469.8,-4683.5 355.22,-4672.6 355.22,-4650.41 469.8,-4639.5 626.83,-4639.5 741.4,-4650.41"/>
<polygon fill="none" stroke="#4685fa" points="745.4,-4646.77 745.4,-4676.23 627.02,-4687.5 469.61,-4687.5 351.22,-4676.23 351.22,-4646.77 469.61,-4635.5 627.02,-4635.5 745.4,-4646.77"/>
<text text-anchor="middle" x="548.31" y="-4656.45" font-family="Times,serif" font-size="14.00" fill="#000000">NixOS generation 193, 3m ago (330.1 MB)</text>
</g>
<!-- N60&#45;&gt;N9 -->
<g id="edge49" class="edge">
<title>N60&#45;&gt;N9</title>
<path fill="none" stroke="black" d="M745.66,-4661.55C850.65,-4664.7 981.64,-4673.67 1096.62,-4696.5 1166.28,-4710.33 1243.17,-4738.61 1292.96,-4758.75"/>
<polygon fill="black" stroke="black" points="1291.48,-4761.93 1302.06,-4762.47 1294.13,-4755.45 1291.48,-4761.93"/>
</g>
<!-- N12 -->
<g id="node87" class="node">
<title>N12</title>
<polygon fill="#a8fc3a" stroke="#a8fc3a" points="2090.37,-3728.5 1775.12,-3728.5 1775.12,-3692.5 2090.37,-3692.5 2090.37,-3728.5"/>
<text text-anchor="middle" x="1932.75" y="-3705.45" font-family="Times,serif" font-size="14.00" fill="#000000">shared:texlive&#45;combined&#45;full&#45;2023.20240114 (3.0 GB)</text>
</g>
<!-- N60&#45;&gt;N12 -->
<g id="edge50" class="edge">
<title>N60&#45;&gt;N12</title>
<path fill="none" stroke="black" d="M698.58,-4681.18C813.11,-4689.56 972.17,-4686.27 1096.62,-4626.5 1532.49,-4417.19 1846.56,-3869.69 1916.88,-3738.87"/>
<polygon fill="black" stroke="black" points="1919.9,-3740.65 1921.52,-3730.18 1913.73,-3737.36 1919.9,-3740.65"/>
</g>
<!-- N59 -->
<g id="node33" class="node">
<title>N59</title>
<polygon fill="#30123b" stroke="#30123b" points="735.19,-3884.05 735.19,-3898.96 625.72,-3909.5 470.91,-3909.5 361.44,-3898.96 361.44,-3884.05 470.91,-3873.5 625.72,-3873.5 735.19,-3884.05"/>
<polygon fill="none" stroke="#30123b" points="739.19,-3880.41 739.19,-3902.59 625.91,-3913.5 470.71,-3913.5 357.44,-3902.59 357.44,-3880.41 470.71,-3869.5 625.91,-3869.5 739.19,-3880.41"/>
<polygon fill="none" stroke="#30123b" points="743.19,-3876.78 743.19,-3906.22 626.1,-3917.5 470.52,-3917.5 353.44,-3906.22 353.44,-3876.78 470.52,-3865.5 626.1,-3865.5 743.19,-3876.78"/>
<text text-anchor="middle" x="548.31" y="-3886.45" font-family="Times,serif" font-size="14.00" fill="#ffffff">NixOS generation 209, 3m ago (104.8 KB)</text>
</g>
<!-- N59&#45;&gt;N13 -->
<g id="edge48" class="edge">
<title>N59&#45;&gt;N13</title>
<path fill="none" stroke="black" d="M667.67,-3913.98C785.38,-3929.82 966.69,-3936.03 1096.62,-3856.5 1246.99,-3764.48 1317.73,-3545.06 1339.03,-3465.74"/>
<polygon fill="black" stroke="black" points="1342.4,-3466.7 1341.54,-3456.14 1335.63,-3464.93 1342.4,-3466.7"/>
</g>
<!-- N58 -->
<g id="node34" class="node">
<title>N58</title>
<polygon fill="#30123b" stroke="#30123b" points="735.19,-3814.05 735.19,-3828.96 625.72,-3839.5 470.91,-3839.5 361.44,-3828.96 361.44,-3814.05 470.91,-3803.5 625.72,-3803.5 735.19,-3814.05"/>
<polygon fill="none" stroke="#30123b" points="739.19,-3810.41 739.19,-3832.59 625.91,-3843.5 470.71,-3843.5 357.44,-3832.59 357.44,-3810.41 470.71,-3799.5 625.91,-3799.5 739.19,-3810.41"/>
<polygon fill="none" stroke="#30123b" points="743.19,-3806.78 743.19,-3836.22 626.1,-3847.5 470.52,-3847.5 353.44,-3836.22 353.44,-3806.78 470.52,-3795.5 626.1,-3795.5 743.19,-3806.78"/>
<text text-anchor="middle" x="548.31" y="-3816.45" font-family="Times,serif" font-size="14.00" fill="#ffffff">NixOS generation 206, 3m ago (132.6 KB)</text>
</g>
<!-- N58&#45;&gt;N13 -->
<g id="edge47" class="edge">
<title>N58&#45;&gt;N13</title>
<path fill="none" stroke="black" d="M677.72,-3842.98C794.49,-3855.94 967.75,-3858.18 1096.62,-3786.5 1229.16,-3712.79 1308.56,-3535.6 1335.68,-3465.63"/>
<polygon fill="black" stroke="black" points="1338.91,-3466.99 1339.19,-3456.39 1332.37,-3464.5 1338.91,-3466.99"/>
</g>
<!-- N57 -->
<g id="node35" class="node">
<title>N57</title>
<polygon fill="#372466" stroke="#372466" points="727.43,-3744.05 727.43,-3758.96 622.51,-3769.5 474.12,-3769.5 369.19,-3758.96 369.19,-3744.05 474.12,-3733.5 622.51,-3733.5 727.43,-3744.05"/>
<polygon fill="none" stroke="#372466" points="731.43,-3740.43 731.43,-3762.58 622.71,-3773.5 473.92,-3773.5 365.19,-3762.58 365.19,-3740.43 473.92,-3729.5 622.71,-3729.5 731.43,-3740.43"/>
<polygon fill="none" stroke="#372466" points="735.43,-3736.81 735.43,-3766.19 622.91,-3777.5 473.72,-3777.5 361.19,-3766.19 361.19,-3736.81 473.72,-3725.5 622.91,-3725.5 735.43,-3736.81"/>
<text text-anchor="middle" x="548.31" y="-3746.45" font-family="Times,serif" font-size="14.00" fill="#ffffff">NixOS generation 212, 2m ago (8.6 MB)</text>
</g>
<!-- N57&#45;&gt;N13 -->
<g id="edge46" class="edge">
<title>N57&#45;&gt;N13</title>
<path fill="none" stroke="black" d="M692,-3771.04C807.08,-3780.26 970.05,-3778.16 1096.62,-3716.5 1212.34,-3660.14 1298.16,-3523.92 1331.28,-3464.74"/>
<polygon fill="black" stroke="black" points="1334.19,-3466.72 1335.94,-3456.27 1328.06,-3463.35 1334.19,-3466.72"/>
</g>
<!-- N56 -->
<g id="node36" class="node">
<title>N56</title>
<polygon fill="#30123b" stroke="#30123b" points="715.24,-3674.05 715.24,-3688.96 617.46,-3699.5 479.17,-3699.5 381.38,-3688.96 381.38,-3674.05 479.17,-3663.5 617.46,-3663.5 715.24,-3674.05"/>
<polygon fill="none" stroke="#30123b" points="719.24,-3670.45 719.24,-3692.55 617.67,-3703.5 478.95,-3703.5 377.38,-3692.55 377.38,-3670.45 478.95,-3659.5 617.67,-3659.5 719.24,-3670.45"/>
<polygon fill="none" stroke="#30123b" points="723.24,-3666.86 723.24,-3696.14 617.89,-3707.5 478.74,-3707.5 373.38,-3696.14 373.38,-3666.86 478.74,-3655.5 617.89,-3655.5 723.24,-3666.86"/>
<text text-anchor="middle" x="548.31" y="-3676.45" font-family="Times,serif" font-size="14.00" fill="#ffffff">NixOS generation 229, 2m ago (37 B)</text>
</g>
<!-- N56&#45;&gt;N13 -->
<g id="edge45" class="edge">
<title>N56&#45;&gt;N13</title>
<path fill="none" stroke="black" d="M716.29,-3697.36C827.87,-3701.67 975.79,-3695 1096.62,-3646.5 1196.16,-3606.56 1285.03,-3510.79 1324.55,-3463.65"/>
<polygon fill="black" stroke="black" points="1327.15,-3466.01 1330.82,-3456.07 1321.75,-3461.55 1327.15,-3466.01"/>
</g>
<!-- N55 -->
<g id="node37" class="node">
<title>N55</title>
<polygon fill="#30123b" stroke="#30123b" points="715.24,-3604.05 715.24,-3618.96 617.46,-3629.5 479.17,-3629.5 381.38,-3618.96 381.38,-3604.05 479.17,-3593.5 617.46,-3593.5 715.24,-3604.05"/>
<polygon fill="none" stroke="#30123b" points="719.24,-3600.45 719.24,-3622.55 617.67,-3633.5 478.95,-3633.5 377.38,-3622.55 377.38,-3600.45 478.95,-3589.5 617.67,-3589.5 719.24,-3600.45"/>
<polygon fill="none" stroke="#30123b" points="723.24,-3596.86 723.24,-3626.14 617.89,-3637.5 478.74,-3637.5 373.38,-3626.14 373.38,-3596.86 478.74,-3585.5 617.89,-3585.5 723.24,-3596.86"/>
<text text-anchor="middle" x="548.31" y="-3606.45" font-family="Times,serif" font-size="14.00" fill="#ffffff">NixOS generation 226, 2m ago (37 B)</text>
</g>
<!-- N55&#45;&gt;N13 -->
<g id="edge44" class="edge">
<title>N55&#45;&gt;N13</title>
<path fill="none" stroke="black" d="M723.46,-3619.9C832.74,-3620.42 975.42,-3612.34 1096.62,-3576.5 1180.7,-3551.64 1267.47,-3494.54 1313.27,-3461.46"/>
<polygon fill="black" stroke="black" points="1315.18,-3464.4 1321.19,-3455.67 1311.05,-3458.75 1315.18,-3464.4"/>
</g>
<!-- N54 -->
<g id="node38" class="node">
<title>N54</title>
<polygon fill="#30123b" stroke="#30123b" points="730.2,-3534.05 730.2,-3548.96 623.65,-3559.5 472.97,-3559.5 366.42,-3548.96 366.42,-3534.05 472.97,-3523.5 623.65,-3523.5 730.2,-3534.05"/>
<polygon fill="none" stroke="#30123b" points="734.2,-3530.42 734.2,-3552.58 623.85,-3563.5 472.77,-3563.5 362.42,-3552.58 362.42,-3530.42 472.77,-3519.5 623.85,-3519.5 734.2,-3530.42"/>
<polygon fill="none" stroke="#30123b" points="738.2,-3526.8 738.2,-3556.21 624.05,-3567.5 472.58,-3567.5 358.42,-3556.21 358.42,-3526.8 472.58,-3515.5 624.05,-3515.5 738.2,-3526.8"/>
<text text-anchor="middle" x="548.31" y="-3536.45" font-family="Times,serif" font-size="14.00" fill="#ffffff">NixOS generation 231, 2m ago (82.9 KB)</text>
</g>
<!-- N54&#45;&gt;N13 -->
<g id="edge43" class="edge">
<title>N54&#45;&gt;N13</title>
<path fill="none" stroke="black" d="M738.52,-3539.15C844.46,-3535.4 978.59,-3526.6 1096.62,-3506.5 1160.9,-3495.56 1232.37,-3474.58 1282.31,-3458.44"/>
<polygon fill="black" stroke="black" points="1283.08,-3461.87 1291.5,-3455.44 1280.91,-3455.21 1283.08,-3461.87"/>
</g>
<!-- N53 -->
<g id="node39" class="node">
<title>N53</title>
<polygon fill="#30123b" stroke="#30123b" points="731.86,-804.05 731.86,-818.96 624.34,-829.5 472.28,-829.5 364.76,-818.96 364.76,-804.05 472.28,-793.5 624.34,-793.5 731.86,-804.05"/>
<polygon fill="none" stroke="#30123b" points="735.86,-800.42 735.86,-822.59 624.54,-833.5 472.09,-833.5 360.76,-822.59 360.76,-800.42 472.09,-789.5 624.54,-789.5 735.86,-800.42"/>
<polygon fill="none" stroke="#30123b" points="739.86,-796.79 739.86,-826.21 624.73,-837.5 471.89,-837.5 356.76,-826.21 356.76,-796.79 471.89,-785.5 624.73,-785.5 739.86,-796.79"/>
<text text-anchor="middle" x="548.31" y="-806.45" font-family="Times,serif" font-size="14.00" fill="#ffffff">NixOS generation 240, 28d ago (50.7 KB)</text>
</g>
<!-- N53&#45;&gt;N7 -->
<g id="edge42" class="edge">
<title>N53&#45;&gt;N7</title>
<path fill="none" stroke="black" d="M739.92,-815.74C945.42,-823.85 1280.86,-847.37 1561.87,-915.5 1577.25,-919.23 1593.57,-924.24 1608.66,-929.34"/>
<polygon fill="black" stroke="black" points="1607.38,-932.6 1617.97,-932.56 1609.66,-925.99 1607.38,-932.6"/>
</g>
<!-- N52 -->
<g id="node40" class="node">
<title>N52</title>
<polygon fill="#30123b" stroke="#30123b" points="735.19,-2064.05 735.19,-2078.96 625.72,-2089.5 470.91,-2089.5 361.44,-2078.96 361.44,-2064.05 470.91,-2053.5 625.72,-2053.5 735.19,-2064.05"/>
<polygon fill="none" stroke="#30123b" points="739.19,-2060.41 739.19,-2082.59 625.91,-2093.5 470.71,-2093.5 357.44,-2082.59 357.44,-2060.41 470.71,-2049.5 625.91,-2049.5 739.19,-2060.41"/>
<polygon fill="none" stroke="#30123b" points="743.19,-2056.78 743.19,-2086.22 626.1,-2097.5 470.52,-2097.5 353.44,-2086.22 353.44,-2056.78 470.52,-2045.5 626.1,-2045.5 743.19,-2056.78"/>
<text text-anchor="middle" x="548.31" y="-2066.45" font-family="Times,serif" font-size="14.00" fill="#ffffff">NixOS generation 196, 3m ago (150.6 KB)</text>
</g>
<!-- N52&#45;&gt;N8 -->
<g id="edge41" class="edge">
<title>N52&#45;&gt;N8</title>
<path fill="none" stroke="black" d="M743.5,-2062.97C857.43,-2057.97 1001.91,-2051.63 1120.84,-2046.4"/>
<polygon fill="black" stroke="black" points="1120.92,-2049.9 1130.76,-2045.97 1120.62,-2042.91 1120.92,-2049.9"/>
</g>
<!-- N51 -->
<g id="node41" class="node">
<title>N51</title>
<polygon fill="#30123b" stroke="#30123b" points="730.2,-4794.05 730.2,-4808.96 623.65,-4819.5 472.97,-4819.5 366.42,-4808.96 366.42,-4794.05 472.97,-4783.5 623.65,-4783.5 730.2,-4794.05"/>
<polygon fill="none" stroke="#30123b" points="734.2,-4790.42 734.2,-4812.58 623.85,-4823.5 472.77,-4823.5 362.42,-4812.58 362.42,-4790.42 472.77,-4779.5 623.85,-4779.5 734.2,-4790.42"/>
<polygon fill="none" stroke="#30123b" points="738.2,-4786.8 738.2,-4816.21 624.05,-4827.5 472.58,-4827.5 358.42,-4816.21 358.42,-4786.8 472.58,-4775.5 624.05,-4775.5 738.2,-4786.8"/>
<text text-anchor="middle" x="548.31" y="-4796.45" font-family="Times,serif" font-size="14.00" fill="#ffffff">NixOS generation 190, 3m ago (94.8 KB)</text>
</g>
<!-- N51&#45;&gt;N9 -->
<g id="edge40" class="edge">
<title>N51&#45;&gt;N9</title>
<path fill="none" stroke="black" d="M738.68,-4796.75C853.41,-4793.87 1000.4,-4790.18 1121.06,-4787.15"/>
<polygon fill="black" stroke="black" points="1120.86,-4790.66 1130.77,-4786.91 1120.69,-4783.66 1120.86,-4790.66"/>
</g>
<!-- N50 -->
<g id="node42" class="node">
<title>N50</title>
<polygon fill="#341b51" stroke="#341b51" points="727.43,-1994.05 727.43,-2008.96 622.51,-2019.5 474.12,-2019.5 369.19,-2008.96 369.19,-1994.05 474.12,-1983.5 622.51,-1983.5 727.43,-1994.05"/>
<polygon fill="none" stroke="#341b51" points="731.43,-1990.43 731.43,-2012.58 622.71,-2023.5 473.92,-2023.5 365.19,-2012.58 365.19,-1990.43 473.92,-1979.5 622.71,-1979.5 731.43,-1990.43"/>
<polygon fill="none" stroke="#341b51" points="735.43,-1986.81 735.43,-2016.19 622.91,-2027.5 473.72,-2027.5 361.19,-2016.19 361.19,-1986.81 473.72,-1975.5 622.91,-1975.5 735.43,-1986.81"/>
<text text-anchor="middle" x="548.31" y="-1996.45" font-family="Times,serif" font-size="14.00" fill="#ffffff">NixOS generation 200, 3m ago (2.4 MB)</text>
</g>
<!-- N50&#45;&gt;N8 -->
<g id="edge39" class="edge">
<title>N50&#45;&gt;N8</title>
<path fill="none" stroke="black" d="M735.91,-2009.7C851,-2014.75 999.35,-2021.27 1120.97,-2026.61"/>
<polygon fill="black" stroke="black" points="1120.63,-2030.1 1130.77,-2027.04 1120.94,-2023.1 1120.63,-2030.1"/>
</g>
<!-- N49 -->
<g id="node43" class="node">
<title>N49</title>
<polygon fill="#30123b" stroke="#30123b" points="730.2,-1924.05 730.2,-1938.96 623.65,-1949.5 472.97,-1949.5 366.42,-1938.96 366.42,-1924.05 472.97,-1913.5 623.65,-1913.5 730.2,-1924.05"/>
<polygon fill="none" stroke="#30123b" points="734.2,-1920.42 734.2,-1942.58 623.85,-1953.5 472.77,-1953.5 362.42,-1942.58 362.42,-1920.42 472.77,-1909.5 623.85,-1909.5 734.2,-1920.42"/>
<polygon fill="none" stroke="#30123b" points="738.2,-1916.8 738.2,-1946.21 624.05,-1957.5 472.58,-1957.5 358.42,-1946.21 358.42,-1916.8 472.58,-1905.5 624.05,-1905.5 738.2,-1916.8"/>
<text text-anchor="middle" x="548.31" y="-1926.45" font-family="Times,serif" font-size="14.00" fill="#ffffff">NixOS generation 199, 3m ago (88.7 KB)</text>
</g>
<!-- N49&#45;&gt;N8 -->
<g id="edge38" class="edge">
<title>N49&#45;&gt;N8</title>
<path fill="none" stroke="black" d="M738.52,-1933.86C844.46,-1937.61 978.59,-1946.41 1096.62,-1966.5 1160.9,-1977.45 1232.37,-1998.42 1282.31,-2014.57"/>
<polygon fill="black" stroke="black" points="1280.91,-2017.79 1291.5,-2017.57 1283.08,-2011.14 1280.91,-2017.79"/>
</g>
<!-- N48 -->
<g id="node44" class="node">
<title>N48</title>
<polygon fill="#4454c3" stroke="#4454c3" points="737.4,-4724.05 737.4,-4738.96 626.64,-4749.5 469.99,-4749.5 359.22,-4738.96 359.22,-4724.05 469.99,-4713.5 626.64,-4713.5 737.4,-4724.05"/>
<polygon fill="none" stroke="#4454c3" points="741.4,-4720.41 741.4,-4742.6 626.83,-4753.5 469.8,-4753.5 355.22,-4742.6 355.22,-4720.41 469.8,-4709.5 626.83,-4709.5 741.4,-4720.41"/>
<polygon fill="none" stroke="#4454c3" points="745.4,-4716.77 745.4,-4746.23 627.02,-4757.5 469.61,-4757.5 351.22,-4746.23 351.22,-4716.77 469.61,-4705.5 627.02,-4705.5 745.4,-4716.77"/>
<text text-anchor="middle" x="548.31" y="-4726.45" font-family="Times,serif" font-size="14.00" fill="#ffffff">NixOS generation 189, 4m ago (102.4 MB)</text>
</g>
<!-- N48&#45;&gt;N9 -->
<g id="edge37" class="edge">
<title>N48&#45;&gt;N9</title>
<path fill="none" stroke="black" d="M745.8,-4743.83C859.43,-4750.96 1002.86,-4759.96 1121.04,-4767.37"/>
<polygon fill="black" stroke="black" points="1120.68,-4770.86 1130.88,-4767.99 1121.12,-4763.87 1120.68,-4770.86"/>
</g>
<!-- N47 -->
<g id="node45" class="node">
<title>N47</title>
<polygon fill="#30123b" stroke="#30123b" points="735.19,-1854.05 735.19,-1868.96 625.72,-1879.5 470.91,-1879.5 361.44,-1868.96 361.44,-1854.05 470.91,-1843.5 625.72,-1843.5 735.19,-1854.05"/>
<polygon fill="none" stroke="#30123b" points="739.19,-1850.41 739.19,-1872.59 625.91,-1883.5 470.71,-1883.5 357.44,-1872.59 357.44,-1850.41 470.71,-1839.5 625.91,-1839.5 739.19,-1850.41"/>
<polygon fill="none" stroke="#30123b" points="743.19,-1846.78 743.19,-1876.22 626.1,-1887.5 470.52,-1887.5 353.44,-1876.22 353.44,-1846.78 470.52,-1835.5 626.1,-1835.5 743.19,-1846.78"/>
<text text-anchor="middle" x="548.31" y="-1856.45" font-family="Times,serif" font-size="14.00" fill="#ffffff">NixOS generation 198, 3m ago (150.6 KB)</text>
</g>
<!-- N47&#45;&gt;N8 -->
<g id="edge36" class="edge">
<title>N47&#45;&gt;N8</title>
<path fill="none" stroke="black" d="M743.57,-1853.11C849.86,-1853.66 982.72,-1862.82 1096.62,-1896.5 1180.7,-1921.36 1267.47,-1978.46 1313.27,-2011.55"/>
<polygon fill="black" stroke="black" points="1311.05,-2014.26 1321.19,-2017.33 1315.18,-2008.61 1311.05,-2014.26"/>
</g>
<!-- N46 -->
<g id="node46" class="node">
<title>N46</title>
<polygon fill="#30123b" stroke="#30123b" points="735.19,-3464.05 735.19,-3478.96 625.72,-3489.5 470.91,-3489.5 361.44,-3478.96 361.44,-3464.05 470.91,-3453.5 625.72,-3453.5 735.19,-3464.05"/>
<polygon fill="none" stroke="#30123b" points="739.19,-3460.41 739.19,-3482.59 625.91,-3493.5 470.71,-3493.5 357.44,-3482.59 357.44,-3460.41 470.71,-3449.5 625.91,-3449.5 739.19,-3460.41"/>
<polygon fill="none" stroke="#30123b" points="743.19,-3456.78 743.19,-3486.22 626.1,-3497.5 470.52,-3497.5 353.44,-3486.22 353.44,-3456.78 470.52,-3445.5 626.1,-3445.5 743.19,-3456.78"/>
<text text-anchor="middle" x="548.31" y="-3466.45" font-family="Times,serif" font-size="14.00" fill="#ffffff">NixOS generation 207, 3m ago (154.6 KB)</text>
</g>
<!-- N46&#45;&gt;N13 -->
<g id="edge35" class="edge">
<title>N46&#45;&gt;N13</title>
<path fill="none" stroke="black" d="M743.5,-3462.97C914.01,-3455.49 1152.92,-3444.99 1272.28,-3439.75"/>
<polygon fill="black" stroke="black" points="1272.1,-3443.26 1281.94,-3439.33 1271.79,-3436.27 1272.1,-3443.26"/>
</g>
<!-- N45 -->
<g id="node47" class="node">
<title>N45</title>
<polygon fill="#30123b" stroke="#30123b" points="730.2,-3394.05 730.2,-3408.96 623.65,-3419.5 472.97,-3419.5 366.42,-3408.96 366.42,-3394.05 472.97,-3383.5 623.65,-3383.5 730.2,-3394.05"/>
<polygon fill="none" stroke="#30123b" points="734.2,-3390.42 734.2,-3412.58 623.85,-3423.5 472.77,-3423.5 362.42,-3412.58 362.42,-3390.42 472.77,-3379.5 623.85,-3379.5 734.2,-3390.42"/>
<polygon fill="none" stroke="#30123b" points="738.2,-3386.8 738.2,-3416.21 624.05,-3427.5 472.58,-3427.5 358.42,-3416.21 358.42,-3386.8 472.58,-3375.5 624.05,-3375.5 738.2,-3386.8"/>
<text text-anchor="middle" x="548.31" y="-3396.45" font-family="Times,serif" font-size="14.00" fill="#ffffff">NixOS generation 223, 2m ago (82.9 KB)</text>
</g>
<!-- N45&#45;&gt;N13 -->
<g id="edge34" class="edge">
<title>N45&#45;&gt;N13</title>
<path fill="none" stroke="black" d="M738.68,-3409.82C909.48,-3417.32 1151.8,-3427.96 1272.28,-3433.25"/>
<polygon fill="black" stroke="black" points="1271.9,-3436.74 1282.04,-3433.68 1272.21,-3429.75 1271.9,-3436.74"/>
</g>
<!-- N44 -->
<g id="node48" class="node">
<title>N44</title>
<polygon fill="#4457c7" stroke="#4457c7" points="737.4,-2204.05 737.4,-2218.96 626.64,-2229.5 469.99,-2229.5 359.22,-2218.96 359.22,-2204.05 469.99,-2193.5 626.64,-2193.5 737.4,-2204.05"/>
<polygon fill="none" stroke="#4457c7" points="741.4,-2200.41 741.4,-2222.6 626.83,-2233.5 469.8,-2233.5 355.22,-2222.6 355.22,-2200.41 469.8,-2189.5 626.83,-2189.5 741.4,-2200.41"/>
<polygon fill="none" stroke="#4457c7" points="745.4,-2196.77 745.4,-2226.23 627.02,-2237.5 469.61,-2237.5 351.22,-2226.23 351.22,-2196.77 469.61,-2185.5 627.02,-2185.5 745.4,-2196.77"/>
<text text-anchor="middle" x="548.31" y="-2206.45" font-family="Times,serif" font-size="14.00" fill="#ffffff">NixOS generation 201, 3m ago (109.9 MB)</text>
</g>
<!-- N44&#45;&gt;N8 -->
<g id="edge33" class="edge">
<title>N44&#45;&gt;N8</title>
<path fill="none" stroke="black" d="M745.81,-2219.88C851.72,-2219.22 983.52,-2209.95 1096.62,-2176.5 1180.7,-2151.64 1267.47,-2094.54 1313.27,-2061.46"/>
<polygon fill="black" stroke="black" points="1315.18,-2064.4 1321.19,-2055.67 1311.05,-2058.75 1315.18,-2064.4"/>
</g>
<!-- N44&#45;&gt;N14 -->
<g id="edge32" class="edge">
<title>N44&#45;&gt;N14</title>
<path fill="none" stroke="black" d="M745.72,-2208.29C851.02,-2210.51 982.28,-2219.61 1096.62,-2246.5 1172.09,-2264.25 1253.91,-2302.7 1302.59,-2327.82"/>
<polygon fill="black" stroke="black" points="1300.92,-2330.9 1311.41,-2332.42 1304.16,-2324.69 1300.92,-2330.9"/>
</g>
<!-- N4 -->
<g id="node49" class="node">
<title>N4</title>
<polygon fill="#7a0403" stroke="#7a0403" points="1088.62,-5284.05 1088.62,-5298.96 772.12,-5309.5 324.51,-5309.5 8,-5298.96 8,-5284.05 324.51,-5273.5 772.12,-5273.5 1088.62,-5284.05"/>
<polygon fill="none" stroke="#7a0403" points="1092.62,-5280.18 1092.62,-5302.83 772.18,-5313.5 324.44,-5313.5 4,-5302.83 4,-5280.18 324.44,-5269.5 772.18,-5269.5 1092.62,-5280.18"/>
<polygon fill="none" stroke="#7a0403" points="1096.62,-5276.31 1096.62,-5306.7 772.25,-5317.5 324.37,-5317.5 0,-5306.7 0,-5276.31 324.37,-5265.5 772.25,-5265.5 1096.62,-5276.31"/>
<text text-anchor="middle" x="548.31" y="-5286.45" font-family="Times,serif" font-size="14.00" fill="#ffffff">/Users/patrick/source/exercism/haskell/bob/.direnv/flake&#45;profile&#45;a5d5b61aa8a61b7d9d765e1daf971a9a578f1cfa, 7m ago (11.8 GB)</text>
</g>
<!-- N5 -->
<g id="node50" class="node">
<title>N5</title>
<polygon fill="#23c3e4" stroke="#23c3e4" points="1037.1,-5354.05 1037.1,-5368.96 750.78,-5379.5 345.85,-5379.5 59.52,-5368.96 59.52,-5354.05 345.85,-5343.5 750.78,-5343.5 1037.1,-5354.05"/>
<polygon fill="none" stroke="#23c3e4" points="1041.1,-5350.19 1041.1,-5372.81 750.85,-5383.5 345.77,-5383.5 55.52,-5372.81 55.52,-5350.19 345.77,-5339.5 750.85,-5339.5 1041.1,-5350.19"/>
<polygon fill="none" stroke="#23c3e4" points="1045.1,-5346.34 1045.1,-5376.67 750.92,-5387.5 345.7,-5387.5 51.52,-5376.67 51.52,-5346.34 345.7,-5335.5 750.92,-5335.5 1045.1,-5346.34"/>
<text text-anchor="middle" x="548.31" y="-5356.45" font-family="Times,serif" font-size="14.00" fill="#000000">/Users/patrick/source/cosmo/.direnv/flake&#45;profile&#45;a5d5b61aa8a61b7d9d765e1daf971a9a578f1cfa, 5m ago (826.0 MB)</text>
</g>
<!-- N43 -->
<g id="node51" class="node">
<title>N43</title>
<polygon fill="#3d358c" stroke="#3d358c" points="732.42,-3324.05 732.42,-3338.96 624.57,-3349.5 472.05,-3349.5 364.21,-3338.96 364.21,-3324.05 472.05,-3313.5 624.57,-3313.5 732.42,-3324.05"/>
<polygon fill="none" stroke="#3d358c" points="736.42,-3320.42 736.42,-3342.59 624.77,-3353.5 471.86,-3353.5 360.21,-3342.59 360.21,-3320.42 471.86,-3309.5 624.77,-3309.5 736.42,-3320.42"/>
<polygon fill="none" stroke="#3d358c" points="740.42,-3316.79 740.42,-3346.21 624.96,-3357.5 471.66,-3357.5 356.21,-3346.21 356.21,-3316.79 471.66,-3305.5 624.96,-3305.5 740.42,-3316.79"/>
<text text-anchor="middle" x="548.31" y="-3326.45" font-family="Times,serif" font-size="14.00" fill="#ffffff">NixOS generation 208, 3m ago (27.6 MB)</text>
</g>
<!-- N43&#45;&gt;N13 -->
<g id="edge31" class="edge">
<title>N43&#45;&gt;N13</title>
<path fill="none" stroke="black" d="M740.73,-3333.94C846.32,-3337.73 979.41,-3346.55 1096.62,-3366.5 1160.9,-3377.45 1232.37,-3398.42 1282.31,-3414.57"/>
<polygon fill="black" stroke="black" points="1280.91,-3417.79 1291.5,-3417.57 1283.08,-3411.14 1280.91,-3417.79"/>
</g>
<!-- N42 -->
<g id="node52" class="node">
<title>N42</title>
<polygon fill="#30123b" stroke="#30123b" points="1022.7,-5494.05 1022.7,-5508.96 744.81,-5519.5 351.81,-5519.5 73.92,-5508.96 73.92,-5494.05 351.81,-5483.5 744.81,-5483.5 1022.7,-5494.05"/>
<polygon fill="none" stroke="#30123b" points="1026.7,-5490.2 1026.7,-5512.81 744.89,-5523.5 351.74,-5523.5 69.92,-5512.81 69.92,-5490.2 351.74,-5479.5 744.89,-5479.5 1026.7,-5490.2"/>
<polygon fill="none" stroke="#30123b" points="1030.7,-5486.34 1030.7,-5516.66 744.96,-5527.5 351.66,-5527.5 65.92,-5516.66 65.92,-5486.34 351.66,-5475.5 744.96,-5475.5 1030.7,-5486.34"/>
<text text-anchor="middle" x="548.31" y="-5496.45" font-family="Times,serif" font-size="14.00" fill="#ffffff">/Users/patrick/source/ziget/.direnv/flake&#45;profile&#45;a5d5b61aa8a61b7d9d765e1daf971a9a578f1cfa, 3m ago (76.3 KB)</text>
</g>
<!-- N10 -->
<g id="node85" class="node">
<title>N10</title>
<polygon fill="#18dcc4" stroke="#18dcc4" points="1420.12,-5484.5 1274.37,-5484.5 1274.37,-5448.5 1420.12,-5448.5 1420.12,-5484.5"/>
<text text-anchor="middle" x="1347.25" y="-5461.45" font-family="Times,serif" font-size="14.00" fill="#000000">stdenv&#45;darwin (1.1 GB)</text>
</g>
<!-- N42&#45;&gt;N10 -->
<g id="edge30" class="edge">
<title>N42&#45;&gt;N10</title>
<path fill="none" stroke="black" d="M963.54,-5483.31C1077.28,-5478.32 1189.31,-5473.39 1262.47,-5470.18"/>
<polygon fill="black" stroke="black" points="1262.53,-5473.68 1272.37,-5469.75 1262.22,-5466.69 1262.53,-5473.68"/>
</g>
<!-- N41 -->
<g id="node53" class="node">
<title>N41</title>
<polygon fill="#30123b" stroke="#30123b" points="730.2,-3254.05 730.2,-3268.96 623.65,-3279.5 472.97,-3279.5 366.42,-3268.96 366.42,-3254.05 472.97,-3243.5 623.65,-3243.5 730.2,-3254.05"/>
<polygon fill="none" stroke="#30123b" points="734.2,-3250.42 734.2,-3272.58 623.85,-3283.5 472.77,-3283.5 362.42,-3272.58 362.42,-3250.42 472.77,-3239.5 623.85,-3239.5 734.2,-3250.42"/>
<polygon fill="none" stroke="#30123b" points="738.2,-3246.8 738.2,-3276.21 624.05,-3287.5 472.58,-3287.5 358.42,-3276.21 358.42,-3246.8 472.58,-3235.5 624.05,-3235.5 738.2,-3246.8"/>
<text text-anchor="middle" x="548.31" y="-3256.45" font-family="Times,serif" font-size="14.00" fill="#ffffff">NixOS generation 227, 2m ago (88.9 KB)</text>
</g>
<!-- N41&#45;&gt;N13 -->
<g id="edge29" class="edge">
<title>N41&#45;&gt;N13</title>
<path fill="none" stroke="black" d="M738.48,-3253.09C845.6,-3253.37 980.89,-3262.28 1096.62,-3296.5 1180.7,-3321.36 1267.47,-3378.46 1313.27,-3411.55"/>
<polygon fill="black" stroke="black" points="1311.05,-3414.26 1321.19,-3417.33 1315.18,-3408.61 1311.05,-3414.26"/>
</g>
<!-- N40 -->
<g id="node54" class="node">
<title>N40</title>
<polygon fill="#2bb7ef" stroke="#2bb7ef" points="865.93,-734.05 865.93,-748.96 679.87,-759.5 416.75,-759.5 230.7,-748.96 230.7,-734.05 416.75,-723.5 679.87,-723.5 865.93,-734.05"/>
<polygon fill="none" stroke="#2bb7ef" points="869.93,-730.27 869.93,-752.74 679.99,-763.5 416.64,-763.5 226.7,-752.74 226.7,-730.27 416.64,-719.5 679.99,-719.5 869.93,-730.27"/>
<polygon fill="none" stroke="#2bb7ef" points="873.93,-726.49 873.93,-756.52 680.1,-767.5 416.53,-767.5 222.7,-756.52 222.7,-726.49 416.53,-715.5 680.1,-715.5 873.93,-726.49"/>
<text text-anchor="middle" x="548.31" y="-736.45" font-family="Times,serif" font-size="14.00" fill="#000000">/Users/patrick/.local/state/nix/profiles/profile&#45;507&#45;link, 24d ago (711.6 MB)</text>
</g>
<!-- N40&#45;&gt;N7 -->
<g id="edge28" class="edge">
<title>N40&#45;&gt;N7</title>
<path fill="none" stroke="black" d="M759.93,-719.55C973.79,-706.77 1308.61,-713.53 1561.87,-842.5 1598.94,-861.38 1630.45,-898.41 1649.17,-924.04"/>
<polygon fill="black" stroke="black" points="1646.18,-925.88 1654.82,-932.01 1651.89,-921.83 1646.18,-925.88"/>
</g>
<!-- N39 -->
<g id="node55" class="node">
<title>N39</title>
<polygon fill="#30123b" stroke="#30123b" points="715.24,-3184.05 715.24,-3198.96 617.46,-3209.5 479.17,-3209.5 381.38,-3198.96 381.38,-3184.05 479.17,-3173.5 617.46,-3173.5 715.24,-3184.05"/>
<polygon fill="none" stroke="#30123b" points="719.24,-3180.45 719.24,-3202.55 617.67,-3213.5 478.95,-3213.5 377.38,-3202.55 377.38,-3180.45 478.95,-3169.5 617.67,-3169.5 719.24,-3180.45"/>
<polygon fill="none" stroke="#30123b" points="723.24,-3176.86 723.24,-3206.14 617.89,-3217.5 478.74,-3217.5 373.38,-3206.14 373.38,-3176.86 478.74,-3165.5 617.89,-3165.5 723.24,-3176.86"/>
<text text-anchor="middle" x="548.31" y="-3186.45" font-family="Times,serif" font-size="14.00" fill="#ffffff">NixOS generation 228, 2m ago (37 B)</text>
</g>
<!-- N39&#45;&gt;N13 -->
<g id="edge27" class="edge">
<title>N39&#45;&gt;N13</title>
<path fill="none" stroke="black" d="M716.29,-3175.64C827.87,-3171.34 975.79,-3178.01 1096.62,-3226.5 1196.16,-3266.45 1285.03,-3362.21 1324.55,-3409.35"/>
<polygon fill="black" stroke="black" points="1321.75,-3411.46 1330.82,-3416.93 1327.15,-3407 1321.75,-3411.46"/>
</g>
<!-- N38 -->
<g id="node56" class="node">
<title>N38</title>
<polygon fill="#341b51" stroke="#341b51" points="727.43,-3114.05 727.43,-3128.96 622.51,-3139.5 474.12,-3139.5 369.19,-3128.96 369.19,-3114.05 474.12,-3103.5 622.51,-3103.5 727.43,-3114.05"/>
<polygon fill="none" stroke="#341b51" points="731.43,-3110.43 731.43,-3132.58 622.71,-3143.5 473.92,-3143.5 365.19,-3132.58 365.19,-3110.43 473.92,-3099.5 622.71,-3099.5 731.43,-3110.43"/>
<polygon fill="none" stroke="#341b51" points="735.43,-3106.81 735.43,-3136.19 622.91,-3147.5 473.72,-3147.5 361.19,-3136.19 361.19,-3106.81 473.72,-3095.5 622.91,-3095.5 735.43,-3106.81"/>
<text text-anchor="middle" x="548.31" y="-3116.45" font-family="Times,serif" font-size="14.00" fill="#ffffff">NixOS generation 230, 2m ago (2.4 MB)</text>
</g>
<!-- N38&#45;&gt;N13 -->
<g id="edge26" class="edge">
<title>N38&#45;&gt;N13</title>
<path fill="none" stroke="black" d="M692,-3101.96C807.08,-3092.74 970.05,-3094.85 1096.62,-3156.5 1212.34,-3212.87 1298.16,-3349.08 1331.28,-3408.26"/>
<polygon fill="black" stroke="black" points="1328.06,-3409.66 1335.94,-3416.73 1334.19,-3406.28 1328.06,-3409.66"/>
</g>
<!-- N37 -->
<g id="node57" class="node">
<title>N37</title>
<polygon fill="#341b51" stroke="#341b51" points="727.43,-3044.05 727.43,-3058.96 622.51,-3069.5 474.12,-3069.5 369.19,-3058.96 369.19,-3044.05 474.12,-3033.5 622.51,-3033.5 727.43,-3044.05"/>
<polygon fill="none" stroke="#341b51" points="731.43,-3040.43 731.43,-3062.58 622.71,-3073.5 473.92,-3073.5 365.19,-3062.58 365.19,-3040.43 473.92,-3029.5 622.71,-3029.5 731.43,-3040.43"/>
<polygon fill="none" stroke="#341b51" points="735.43,-3036.81 735.43,-3066.19 622.91,-3077.5 473.72,-3077.5 361.19,-3066.19 361.19,-3036.81 473.72,-3025.5 622.91,-3025.5 735.43,-3036.81"/>
<text text-anchor="middle" x="548.31" y="-3046.45" font-family="Times,serif" font-size="14.00" fill="#ffffff">NixOS generation 235, 1m ago (2.5 MB)</text>
</g>
<!-- N37&#45;&gt;N13 -->
<g id="edge25" class="edge">
<title>N37&#45;&gt;N13</title>
<path fill="none" stroke="black" d="M675.19,-3030.3C791.97,-3017.1 966.82,-3014.31 1096.62,-3086.5 1229.16,-3160.21 1308.56,-3337.4 1335.68,-3407.37"/>
<polygon fill="black" stroke="black" points="1332.37,-3408.5 1339.19,-3416.61 1338.91,-3406.02 1332.37,-3408.5"/>
</g>
<!-- N36 -->
<g id="node58" class="node">
<title>N36</title>
<polygon fill="#30123b" stroke="#30123b" points="735.19,-2974.05 735.19,-2988.96 625.72,-2999.5 470.91,-2999.5 361.44,-2988.96 361.44,-2974.05 470.91,-2963.5 625.72,-2963.5 735.19,-2974.05"/>
<polygon fill="none" stroke="#30123b" points="739.19,-2970.41 739.19,-2992.59 625.91,-3003.5 470.71,-3003.5 357.44,-2992.59 357.44,-2970.41 470.71,-2959.5 625.91,-2959.5 739.19,-2970.41"/>
<polygon fill="none" stroke="#30123b" points="743.19,-2966.78 743.19,-2996.22 626.1,-3007.5 470.52,-3007.5 353.44,-2996.22 353.44,-2966.78 470.52,-2955.5 626.1,-2955.5 743.19,-2966.78"/>
<text text-anchor="middle" x="548.31" y="-2976.45" font-family="Times,serif" font-size="14.00" fill="#ffffff">NixOS generation 214, 2m ago (103.0 KB)</text>
</g>
<!-- N36&#45;&gt;N13 -->
<g id="edge24" class="edge">
<title>N36&#45;&gt;N13</title>
<path fill="none" stroke="black" d="M667.67,-2959.03C785.38,-2943.19 966.69,-2936.98 1096.62,-3016.5 1246.99,-3108.53 1317.73,-3327.95 1339.03,-3407.26"/>
<polygon fill="black" stroke="black" points="1335.63,-3408.08 1341.54,-3416.87 1342.4,-3406.31 1335.63,-3408.08"/>
</g>
<!-- N35 -->
<g id="node59" class="node">
<title>N35</title>
<polygon fill="#30123b" stroke="#30123b" points="843.77,-664.05 843.77,-678.96 670.69,-689.5 425.93,-689.5 252.86,-678.96 252.86,-664.05 425.93,-653.5 670.69,-653.5 843.77,-664.05"/>
<polygon fill="none" stroke="#30123b" points="847.77,-660.28 847.77,-682.72 670.82,-693.5 425.81,-693.5 248.86,-682.72 248.86,-660.28 425.81,-649.5 670.82,-649.5 847.77,-660.28"/>
<polygon fill="none" stroke="#30123b" points="851.77,-656.52 851.77,-686.49 670.94,-697.5 425.69,-697.5 244.86,-686.49 244.86,-656.52 425.69,-645.5 670.94,-645.5 851.77,-656.52"/>
<text text-anchor="middle" x="548.31" y="-666.45" font-family="Times,serif" font-size="14.00" fill="#ffffff">/Users/patrick/.local/state/nix/profiles/profile&#45;503&#45;link, 28d ago (57 B)</text>
</g>
<!-- N35&#45;&gt;N7 -->
<g id="edge23" class="edge">
<title>N35&#45;&gt;N7</title>
<path fill="none" stroke="black" d="M826.24,-654.46C1084.25,-644.08 1446.05,-645.26 1561.87,-723.5 1630.15,-769.62 1655.17,-871.78 1663.6,-922.2"/>
<polygon fill="black" stroke="black" points="1660.1,-922.43 1665.09,-931.77 1667.01,-921.35 1660.1,-922.43"/>
</g>
<!-- N34 -->
<g id="node60" class="node">
<title>N34</title>
<polygon fill="#30123b" stroke="#30123b" points="843.77,-594.05 843.77,-608.96 670.69,-619.5 425.93,-619.5 252.86,-608.96 252.86,-594.05 425.93,-583.5 670.69,-583.5 843.77,-594.05"/>
<polygon fill="none" stroke="#30123b" points="847.77,-590.28 847.77,-612.72 670.82,-623.5 425.81,-623.5 248.86,-612.72 248.86,-590.28 425.81,-579.5 670.82,-579.5 847.77,-590.28"/>
<polygon fill="none" stroke="#30123b" points="851.77,-586.52 851.77,-616.49 670.94,-627.5 425.69,-627.5 244.86,-616.49 244.86,-586.52 425.69,-575.5 670.94,-575.5 851.77,-586.52"/>
<text text-anchor="middle" x="548.31" y="-596.45" font-family="Times,serif" font-size="14.00" fill="#ffffff">/Users/patrick/.local/state/nix/profiles/profile&#45;509&#45;link, 24d ago (57 B)</text>
</g>
<!-- N34&#45;&gt;N7 -->
<g id="edge22" class="edge">
<title>N34&#45;&gt;N7</title>
<path fill="none" stroke="black" d="M791,-582.32C1051.45,-566.8 1444.45,-559.91 1561.87,-647.5 1650.47,-713.59 1665.21,-859.05 1667.34,-921.77"/>
<polygon fill="black" stroke="black" points="1663.84,-921.73 1667.58,-931.65 1670.84,-921.56 1663.84,-921.73"/>
</g>
<!-- N33 -->
<g id="node61" class="node">
<title>N33</title>
<polygon fill="#30123b" stroke="#30123b" points="843.77,-524.05 843.77,-538.96 670.69,-549.5 425.93,-549.5 252.86,-538.96 252.86,-524.05 425.93,-513.5 670.69,-513.5 843.77,-524.05"/>
<polygon fill="none" stroke="#30123b" points="847.77,-520.28 847.77,-542.72 670.82,-553.5 425.81,-553.5 248.86,-542.72 248.86,-520.28 425.81,-509.5 670.82,-509.5 847.77,-520.28"/>
<polygon fill="none" stroke="#30123b" points="851.77,-516.52 851.77,-546.49 670.94,-557.5 425.69,-557.5 244.86,-546.49 244.86,-516.52 425.69,-505.5 670.94,-505.5 851.77,-516.52"/>
<text text-anchor="middle" x="548.31" y="-526.45" font-family="Times,serif" font-size="14.00" fill="#ffffff">/Users/patrick/.local/state/nix/profiles/profile&#45;505&#45;link, 28d ago (57 B)</text>
</g>
<!-- N33&#45;&gt;N7 -->
<g id="edge21" class="edge">
<title>N33&#45;&gt;N7</title>
<path fill="none" stroke="black" d="M851.98,-525.36C1130.01,-522.58 1507.06,-527.13 1561.87,-570.5 1618.06,-614.97 1652.86,-840.32 1663.78,-921.94"/>
<polygon fill="black" stroke="black" points="1660.31,-922.37 1665.08,-931.83 1667.25,-921.46 1660.31,-922.37"/>
</g>
<!-- N32 -->
<g id="node62" class="node">
<title>N32</title>
<polygon fill="#321543" stroke="#321543" points="863.71,-454.05 863.71,-468.96 678.95,-479.5 417.67,-479.5 232.91,-468.96 232.91,-454.05 417.67,-443.5 678.95,-443.5 863.71,-454.05"/>
<polygon fill="none" stroke="#321543" points="867.71,-450.27 867.71,-472.74 679.07,-483.5 417.56,-483.5 228.91,-472.74 228.91,-450.27 417.56,-439.5 679.07,-439.5 867.71,-450.27"/>
<polygon fill="none" stroke="#321543" points="871.71,-446.49 871.71,-476.51 679.18,-487.5 417.44,-487.5 224.91,-476.51 224.91,-446.49 417.44,-435.5 679.18,-435.5 871.71,-446.49"/>
<text text-anchor="middle" x="548.31" y="-456.45" font-family="Times,serif" font-size="14.00" fill="#ffffff">/Users/patrick/.local/state/nix/profiles/profile&#45;501&#45;link, 28d ago (609.9 KB)</text>
</g>
<!-- N32&#45;&gt;N7 -->
<g id="edge20" class="edge">
<title>N32&#45;&gt;N7</title>
<path fill="none" stroke="black" d="M818.85,-442.99C1080.26,-431.01 1452.93,-431.7 1561.87,-522.5 1624.2,-574.44 1655.65,-833.5 1664.69,-921.89"/>
<polygon fill="black" stroke="black" points="1661.19,-922.08 1665.67,-931.69 1668.16,-921.39 1661.19,-922.08"/>
</g>
<!-- N31 -->
<g id="node63" class="node">
<title>N31</title>
<polygon fill="#321543" stroke="#321543" points="1018.27,-5424.05 1018.27,-5438.96 742.97,-5449.5 353.65,-5449.5 78.36,-5438.96 78.36,-5424.05 353.65,-5413.5 742.97,-5413.5 1018.27,-5424.05"/>
<polygon fill="none" stroke="#321543" points="1022.27,-5420.2 1022.27,-5442.81 743.05,-5453.5 353.57,-5453.5 74.36,-5442.81 74.36,-5420.2 353.57,-5409.5 743.05,-5409.5 1022.27,-5420.2"/>
<polygon fill="none" stroke="#321543" points="1026.27,-5416.35 1026.27,-5446.66 743.13,-5457.5 353.5,-5457.5 70.36,-5446.66 70.36,-5416.35 353.5,-5405.5 743.13,-5405.5 1026.27,-5416.35"/>
<text text-anchor="middle" x="548.31" y="-5426.45" font-family="Times,serif" font-size="14.00" fill="#ffffff">/Users/patrick/source/42/.direnv/flake&#45;profile&#45;a5d5b61aa8a61b7d9d765e1daf971a9a578f1cfa, 3m ago (452.4 KB)</text>
</g>
<!-- N31&#45;&gt;N10 -->
<g id="edge19" class="edge">
<title>N31&#45;&gt;N10</title>
<path fill="none" stroke="black" d="M961.79,-5449.62C1076.25,-5454.64 1189.17,-5459.6 1262.7,-5462.83"/>
<polygon fill="black" stroke="black" points="1262.51,-5466.33 1272.65,-5463.27 1262.81,-5459.33 1262.51,-5466.33"/>
</g>
<!-- N30 -->
<g id="node64" class="node">
<title>N30</title>
<polygon fill="#321543" stroke="#321543" points="735.19,-1784.05 735.19,-1798.96 625.72,-1809.5 470.91,-1809.5 361.44,-1798.96 361.44,-1784.05 470.91,-1773.5 625.72,-1773.5 735.19,-1784.05"/>
<polygon fill="none" stroke="#321543" points="739.19,-1780.41 739.19,-1802.59 625.91,-1813.5 470.71,-1813.5 357.44,-1802.59 357.44,-1780.41 470.71,-1769.5 625.91,-1769.5 739.19,-1780.41"/>
<polygon fill="none" stroke="#321543" points="743.19,-1776.78 743.19,-1806.22 626.1,-1817.5 470.52,-1817.5 353.44,-1806.22 353.44,-1776.78 470.52,-1765.5 626.1,-1765.5 743.19,-1776.78"/>
<text text-anchor="middle" x="548.31" y="-1786.45" font-family="Times,serif" font-size="14.00" fill="#ffffff">NixOS generation 197, 3m ago (478.4 KB)</text>
</g>
<!-- N30&#45;&gt;N8 -->
<g id="edge18" class="edge">
<title>N30&#45;&gt;N8</title>
<path fill="none" stroke="black" d="M731.18,-1775.14C840.8,-1772 981.09,-1780.14 1096.62,-1826.5 1196.16,-1866.45 1285.03,-1962.21 1324.55,-2009.35"/>
<polygon fill="black" stroke="black" points="1321.75,-2011.46 1330.82,-2016.93 1327.15,-2007 1321.75,-2011.46"/>
</g>
<!-- N29 -->
<g id="node65" class="node">
<title>N29</title>
<polygon fill="#341b51" stroke="#341b51" points="727.43,-2904.05 727.43,-2918.96 622.51,-2929.5 474.12,-2929.5 369.19,-2918.96 369.19,-2904.05 474.12,-2893.5 622.51,-2893.5 727.43,-2904.05"/>
<polygon fill="none" stroke="#341b51" points="731.43,-2900.43 731.43,-2922.58 622.71,-2933.5 473.92,-2933.5 365.19,-2922.58 365.19,-2900.43 473.92,-2889.5 622.71,-2889.5 731.43,-2900.43"/>
<polygon fill="none" stroke="#341b51" points="735.43,-2896.81 735.43,-2926.19 622.91,-2937.5 473.72,-2937.5 361.19,-2926.19 361.19,-2896.81 473.72,-2885.5 622.91,-2885.5 735.43,-2896.81"/>
<text text-anchor="middle" x="548.31" y="-2906.45" font-family="Times,serif" font-size="14.00" fill="#ffffff">NixOS generation 218, 2m ago (2.5 MB)</text>
</g>
<!-- N29&#45;&gt;N13 -->
<g id="edge17" class="edge">
<title>N29&#45;&gt;N13</title>
<path fill="none" stroke="black" d="M735.89,-2904.15C870.73,-2902.37 1038.9,-2908.54 1096.62,-2946.5 1264.99,-3057.23 1325.42,-3318.47 1341.44,-3406.76"/>
<polygon fill="black" stroke="black" points="1337.98,-3407.29 1343.15,-3416.54 1344.88,-3406.09 1337.98,-3407.29"/>
</g>
<!-- N28 -->
<g id="node66" class="node">
<title>N28</title>
<polygon fill="#3c3286" stroke="#3c3286" points="732.42,-1714.05 732.42,-1728.96 624.57,-1739.5 472.05,-1739.5 364.21,-1728.96 364.21,-1714.05 472.05,-1703.5 624.57,-1703.5 732.42,-1714.05"/>
<polygon fill="none" stroke="#3c3286" points="736.42,-1710.42 736.42,-1732.59 624.77,-1743.5 471.86,-1743.5 360.21,-1732.59 360.21,-1710.42 471.86,-1699.5 624.77,-1699.5 736.42,-1710.42"/>
<polygon fill="none" stroke="#3c3286" points="740.42,-1706.79 740.42,-1736.21 624.96,-1747.5 471.66,-1747.5 356.21,-1736.21 356.21,-1706.79 471.66,-1695.5 624.96,-1695.5 740.42,-1706.79"/>
<text text-anchor="middle" x="548.31" y="-1716.45" font-family="Times,serif" font-size="14.00" fill="#ffffff">NixOS generation 194, 3m ago (23.4 MB)</text>
</g>
<!-- N28&#45;&gt;N8 -->
<g id="edge16" class="edge">
<title>N28&#45;&gt;N8</title>
<path fill="none" stroke="black" d="M694.05,-1701.8C809.01,-1692.77 970.79,-1695.21 1096.62,-1756.5 1212.34,-1812.87 1298.16,-1949.08 1331.28,-2008.26"/>
<polygon fill="black" stroke="black" points="1328.06,-2009.66 1335.94,-2016.73 1334.19,-2006.28 1328.06,-2009.66"/>
</g>
<!-- N27 -->
<g id="node67" class="node">
<title>N27</title>
<polygon fill="#30123b" stroke="#30123b" points="735.19,-2834.05 735.19,-2848.96 625.72,-2859.5 470.91,-2859.5 361.44,-2848.96 361.44,-2834.05 470.91,-2823.5 625.72,-2823.5 735.19,-2834.05"/>
<polygon fill="none" stroke="#30123b" points="739.19,-2830.41 739.19,-2852.59 625.91,-2863.5 470.71,-2863.5 357.44,-2852.59 357.44,-2830.41 470.71,-2819.5 625.91,-2819.5 739.19,-2830.41"/>
<polygon fill="none" stroke="#30123b" points="743.19,-2826.78 743.19,-2856.22 626.1,-2867.5 470.52,-2867.5 353.44,-2856.22 353.44,-2826.78 470.52,-2815.5 626.1,-2815.5 743.19,-2826.78"/>
<text text-anchor="middle" x="548.31" y="-2836.45" font-family="Times,serif" font-size="14.00" fill="#ffffff">NixOS generation 216, 2m ago (148.3 KB)</text>
</g>
<!-- N27&#45;&gt;N13 -->
<g id="edge15" class="edge">
<title>N27&#45;&gt;N13</title>
<path fill="none" stroke="black" d="M743.47,-2833.21C877.37,-2831.3 1040.88,-2837.74 1096.62,-2876.5 1283.72,-3006.62 1332.47,-3310.77 1343.41,-3406.86"/>
<polygon fill="black" stroke="black" points="1339.9,-3406.94 1344.46,-3416.51 1346.86,-3406.19 1339.9,-3406.94"/>
</g>
<!-- N26 -->
<g id="node68" class="node">
<title>N26</title>
<polygon fill="#30123b" stroke="#30123b" points="730.2,-2414.05 730.2,-2428.96 623.65,-2439.5 472.97,-2439.5 366.42,-2428.96 366.42,-2414.05 472.97,-2403.5 623.65,-2403.5 730.2,-2414.05"/>
<polygon fill="none" stroke="#30123b" points="734.2,-2410.42 734.2,-2432.58 623.85,-2443.5 472.77,-2443.5 362.42,-2432.58 362.42,-2410.42 472.77,-2399.5 623.85,-2399.5 734.2,-2410.42"/>
<polygon fill="none" stroke="#30123b" points="738.2,-2406.8 738.2,-2436.21 624.05,-2447.5 472.58,-2447.5 358.42,-2436.21 358.42,-2406.8 472.58,-2395.5 624.05,-2395.5 738.2,-2406.8"/>
<text text-anchor="middle" x="548.31" y="-2416.45" font-family="Times,serif" font-size="14.00" fill="#ffffff">NixOS generation 204, 3m ago (82.9 KB)</text>
</g>
<!-- N26&#45;&gt;N13 -->
<g id="edge14" class="edge">
<title>N26&#45;&gt;N13</title>
<path fill="none" stroke="black" d="M738.46,-2410.68C874.68,-2407.04 1043.46,-2412.38 1096.62,-2456.5 1250.06,-2583.81 1327.72,-3256.56 1343.29,-3406.75"/>
<polygon fill="black" stroke="black" points="1339.81,-3407.06 1344.31,-3416.65 1346.77,-3406.35 1339.81,-3407.06"/>
</g>
<!-- N26&#45;&gt;N14 -->
<g id="edge13" class="edge">
<title>N26&#45;&gt;N14</title>
<path fill="none" stroke="black" d="M738.63,-2412.92C844.16,-2407.25 977.87,-2398.61 1096.62,-2386.5 1135.65,-2382.52 1177.96,-2377.04 1216.46,-2371.59"/>
<polygon fill="black" stroke="black" points="1216.84,-2375.07 1226.25,-2370.2 1215.86,-2368.14 1216.84,-2375.07"/>
</g>
<!-- N25 -->
<g id="node69" class="node">
<title>N25</title>
<polygon fill="#30123b" stroke="#30123b" points="731.86,-384.05 731.86,-398.96 624.34,-409.5 472.28,-409.5 364.76,-398.96 364.76,-384.05 472.28,-373.5 624.34,-373.5 731.86,-384.05"/>
<polygon fill="none" stroke="#30123b" points="735.86,-380.42 735.86,-402.59 624.54,-413.5 472.09,-413.5 360.76,-402.59 360.76,-380.42 472.09,-369.5 624.54,-369.5 735.86,-380.42"/>
<polygon fill="none" stroke="#30123b" points="739.86,-376.79 739.86,-406.21 624.73,-417.5 471.89,-417.5 356.76,-406.21 356.76,-376.79 471.89,-365.5 624.73,-365.5 739.86,-376.79"/>
<text text-anchor="middle" x="548.31" y="-386.45" font-family="Times,serif" font-size="14.00" fill="#ffffff">NixOS generation 239, 28d ago (50.7 KB)</text>
</g>
<!-- N25&#45;&gt;N7 -->
<g id="edge12" class="edge">
<title>N25&#45;&gt;N7</title>
<path fill="none" stroke="black" d="M722.63,-374.64C978.41,-353.72 1439.9,-332.41 1561.87,-436.5 1636.69,-500.35 1660.39,-821.68 1666.02,-921.72"/>
<polygon fill="black" stroke="black" points="1662.52,-921.74 1666.55,-931.54 1669.51,-921.36 1662.52,-921.74"/>
</g>
<!-- N24 -->
<g id="node70" class="node">
<title>N24</title>
<polygon fill="#341b51" stroke="#341b51" points="727.43,-2764.05 727.43,-2778.96 622.51,-2789.5 474.12,-2789.5 369.19,-2778.96 369.19,-2764.05 474.12,-2753.5 622.51,-2753.5 727.43,-2764.05"/>
<polygon fill="none" stroke="#341b51" points="731.43,-2760.43 731.43,-2782.58 622.71,-2793.5 473.92,-2793.5 365.19,-2782.58 365.19,-2760.43 473.92,-2749.5 622.71,-2749.5 731.43,-2760.43"/>
<polygon fill="none" stroke="#341b51" points="735.43,-2756.81 735.43,-2786.19 622.91,-2797.5 473.72,-2797.5 361.19,-2786.19 361.19,-2756.81 473.72,-2745.5 622.91,-2745.5 735.43,-2756.81"/>
<text text-anchor="middle" x="548.31" y="-2766.45" font-family="Times,serif" font-size="14.00" fill="#ffffff">NixOS generation 215, 2m ago (2.4 MB)</text>
</g>
<!-- N24&#45;&gt;N13 -->
<g id="edge11" class="edge">
<title>N24&#45;&gt;N13</title>
<path fill="none" stroke="black" d="M735.88,-2762.67C871.46,-2760.03 1040.6,-2765.77 1096.62,-2806.5 1302.58,-2956.26 1338.72,-3303.16 1344.96,-3406.76"/>
<polygon fill="black" stroke="black" points="1341.46,-3406.86 1345.5,-3416.65 1348.45,-3406.48 1341.46,-3406.86"/>
</g>
<!-- N23 -->
<g id="node71" class="node">
<title>N23</title>
<polygon fill="#21c5e1" stroke="#21c5e1" points="737.4,-2694.05 737.4,-2708.96 626.64,-2719.5 469.99,-2719.5 359.22,-2708.96 359.22,-2694.05 469.99,-2683.5 626.64,-2683.5 737.4,-2694.05"/>
<polygon fill="none" stroke="#21c5e1" points="741.4,-2690.41 741.4,-2712.6 626.83,-2723.5 469.8,-2723.5 355.22,-2712.6 355.22,-2690.41 469.8,-2679.5 626.83,-2679.5 741.4,-2690.41"/>
<polygon fill="none" stroke="#21c5e1" points="745.4,-2686.77 745.4,-2716.23 627.02,-2727.5 469.61,-2727.5 351.22,-2716.23 351.22,-2686.77 469.61,-2675.5 627.02,-2675.5 745.4,-2686.77"/>
<text text-anchor="middle" x="548.31" y="-2696.45" font-family="Times,serif" font-size="14.00" fill="#000000">NixOS generation 221, 2m ago (841.3 MB)</text>
</g>
<!-- N23&#45;&gt;N13 -->
<g id="edge10" class="edge">
<title>N23&#45;&gt;N13</title>
<path fill="none" stroke="black" d="M745.79,-2691.94C879.87,-2689.48 1042.6,-2695.77 1096.62,-2736.5 1321.78,-2906.27 1344.43,-3296.37 1346.24,-3406.85"/>
<polygon fill="black" stroke="black" points="1342.74,-3406.6 1346.35,-3416.56 1349.74,-3406.52 1342.74,-3406.6"/>
</g>
<!-- N22 -->
<g id="node72" class="node">
<title>N22</title>
<polygon fill="#458afc" stroke="#458afc" points="865.93,-314.05 865.93,-328.96 679.87,-339.5 416.75,-339.5 230.7,-328.96 230.7,-314.05 416.75,-303.5 679.87,-303.5 865.93,-314.05"/>
<polygon fill="none" stroke="#458afc" points="869.93,-310.27 869.93,-332.74 679.99,-343.5 416.64,-343.5 226.7,-332.74 226.7,-310.27 416.64,-299.5 679.99,-299.5 869.93,-310.27"/>
<polygon fill="none" stroke="#458afc" points="873.93,-306.49 873.93,-336.52 680.1,-347.5 416.53,-347.5 222.7,-336.52 222.7,-306.49 416.53,-295.5 680.1,-295.5 873.93,-306.49"/>
<text text-anchor="middle" x="548.31" y="-316.45" font-family="Times,serif" font-size="14.00" fill="#000000">/Users/patrick/.local/state/nix/profiles/profile&#45;499&#45;link, 28d ago (360.5 MB)</text>
</g>
<!-- N22&#45;&gt;N7 -->
<g id="edge9" class="edge">
<title>N22&#45;&gt;N7</title>
<path fill="none" stroke="black" d="M874.4,-312C1150.62,-307.19 1510.41,-309.9 1561.87,-354.5 1648.8,-429.84 1664.29,-811.74 1666.96,-921.79"/>
<polygon fill="black" stroke="black" points="1663.46,-921.83 1667.18,-931.75 1670.46,-921.68 1663.46,-921.83"/>
</g>
<!-- N21 -->
<g id="node73" class="node">
<title>N21</title>
<polygon fill="#30123b" stroke="#30123b" points="893.07,-244.05 893.07,-258.96 691.12,-269.5 405.51,-269.5 203.55,-258.96 203.55,-244.05 405.51,-233.5 691.12,-233.5 893.07,-244.05"/>
<polygon fill="none" stroke="#30123b" points="897.07,-240.25 897.07,-262.75 691.22,-273.5 405.4,-273.5 199.55,-262.75 199.55,-240.25 405.4,-229.5 691.22,-229.5 897.07,-240.25"/>
<polygon fill="none" stroke="#30123b" points="901.07,-236.45 901.07,-266.55 691.32,-277.5 405.3,-277.5 195.55,-266.55 195.55,-236.45 405.3,-225.5 691.32,-225.5 901.07,-236.45"/>
<text text-anchor="middle" x="548.31" y="-246.45" font-family="Times,serif" font-size="14.00" fill="#ffffff">/Users/patrick/.local/state/nix/profiles/home&#45;manager&#45;221&#45;link, 28d ago (36.9 KB)</text>
</g>
<!-- N21&#45;&gt;N7 -->
<g id="edge8" class="edge">
<title>N21&#45;&gt;N7</title>
<path fill="none" stroke="black" d="M802.72,-230.82C1065.88,-215.22 1454.01,-210.64 1561.87,-307.5 1654.59,-390.77 1665.96,-806.47 1667.32,-921.79"/>
<polygon fill="black" stroke="black" points="1663.82,-921.69 1667.42,-931.66 1670.82,-921.62 1663.82,-921.69"/>
</g>
<!-- N20 -->
<g id="node74" class="node">
<title>N20</title>
<polygon fill="#4685fa" stroke="#4685fa" points="737.4,-2624.05 737.4,-2638.96 626.64,-2649.5 469.99,-2649.5 359.22,-2638.96 359.22,-2624.05 469.99,-2613.5 626.64,-2613.5 737.4,-2624.05"/>
<polygon fill="none" stroke="#4685fa" points="741.4,-2620.41 741.4,-2642.6 626.83,-2653.5 469.8,-2653.5 355.22,-2642.6 355.22,-2620.41 469.8,-2609.5 626.83,-2609.5 741.4,-2620.41"/>
<polygon fill="none" stroke="#4685fa" points="745.4,-2616.77 745.4,-2646.23 627.02,-2657.5 469.61,-2657.5 351.22,-2646.23 351.22,-2616.77 469.61,-2605.5 627.02,-2605.5 745.4,-2616.77"/>
<text text-anchor="middle" x="548.31" y="-2626.45" font-family="Times,serif" font-size="14.00" fill="#000000">NixOS generation 213, 2m ago (328.3 MB)</text>
</g>
<!-- N20&#45;&gt;N13 -->
<g id="edge7" class="edge">
<title>N20&#45;&gt;N13</title>
<path fill="none" stroke="black" d="M745.79,-2621.48C880.11,-2618.77 1043.15,-2624.95 1096.62,-2666.5 1220.52,-2762.77 1318.2,-3276.93 1341.13,-3406.73"/>
<polygon fill="black" stroke="black" points="1337.69,-3407.33 1342.86,-3416.57 1344.58,-3406.12 1337.69,-3407.33"/>
</g>
<!-- N19 -->
<g id="node75" class="node">
<title>N19</title>
<polygon fill="#33184a" stroke="#33184a" points="729.09,-174.05 729.09,-188.96 623.19,-199.5 473.43,-199.5 367.53,-188.96 367.53,-174.05 473.43,-163.5 623.19,-163.5 729.09,-174.05"/>
<polygon fill="none" stroke="#33184a" points="733.09,-170.43 733.09,-192.58 623.39,-203.5 473.23,-203.5 363.53,-192.58 363.53,-170.43 473.23,-159.5 623.39,-159.5 733.09,-170.43"/>
<polygon fill="none" stroke="#33184a" points="737.09,-166.8 737.09,-196.2 623.59,-207.5 473.03,-207.5 359.53,-196.2 359.53,-166.8 473.03,-155.5 623.59,-155.5 737.09,-166.8"/>
<text text-anchor="middle" x="548.31" y="-176.45" font-family="Times,serif" font-size="14.00" fill="#ffffff">NixOS generation 237, 28d ago (1.6 MB)</text>
</g>
<!-- N19&#45;&gt;N7 -->
<g id="edge6" class="edge">
<title>N19&#45;&gt;N7</title>
<path fill="none" stroke="black" d="M737.31,-175.82C1013.35,-169.37 1502.22,-165.85 1561.87,-219.5 1668.01,-314.96 1669.46,-796.79 1668.01,-921.83"/>
<polygon fill="black" stroke="black" points="1664.51,-921.54 1667.88,-931.59 1671.51,-921.64 1664.51,-921.54"/>
</g>
<!-- N18 -->
<g id="node76" class="node">
<title>N18</title>
<polygon fill="#341b51" stroke="#341b51" points="727.43,-2554.05 727.43,-2568.96 622.51,-2579.5 474.12,-2579.5 369.19,-2568.96 369.19,-2554.05 474.12,-2543.5 622.51,-2543.5 727.43,-2554.05"/>
<polygon fill="none" stroke="#341b51" points="731.43,-2550.43 731.43,-2572.58 622.71,-2583.5 473.92,-2583.5 365.19,-2572.58 365.19,-2550.43 473.92,-2539.5 622.71,-2539.5 731.43,-2550.43"/>
<polygon fill="none" stroke="#341b51" points="735.43,-2546.81 735.43,-2576.19 622.91,-2587.5 473.72,-2587.5 361.19,-2576.19 361.19,-2546.81 473.72,-2535.5 622.91,-2535.5 735.43,-2546.81"/>
<text text-anchor="middle" x="548.31" y="-2556.45" font-family="Times,serif" font-size="14.00" fill="#ffffff">NixOS generation 210, 3m ago (2.5 MB)</text>
</g>
<!-- N18&#45;&gt;N13 -->
<g id="edge5" class="edge">
<title>N18&#45;&gt;N13</title>
<path fill="none" stroke="black" d="M735.87,-2551.33C872.19,-2547.9 1042.32,-2553.22 1096.62,-2596.5 1230.45,-2703.16 1321.84,-3271.02 1342.03,-3407.15"/>
<polygon fill="black" stroke="black" points="1338.53,-3407.39 1343.45,-3416.78 1345.46,-3406.38 1338.53,-3407.39"/>
</g>
<!-- N17 -->
<g id="node77" class="node">
<title>N17</title>
<polygon fill="#476ee7" stroke="#476ee7" points="737.4,-2344.05 737.4,-2358.96 626.64,-2369.5 469.99,-2369.5 359.22,-2358.96 359.22,-2344.05 469.99,-2333.5 626.64,-2333.5 737.4,-2344.05"/>
<polygon fill="none" stroke="#476ee7" points="741.4,-2340.41 741.4,-2362.6 626.83,-2373.5 469.8,-2373.5 355.22,-2362.6 355.22,-2340.41 469.8,-2329.5 626.83,-2329.5 741.4,-2340.41"/>
<polygon fill="none" stroke="#476ee7" points="745.4,-2336.77 745.4,-2366.23 627.02,-2377.5 469.61,-2377.5 351.22,-2366.23 351.22,-2336.77 469.61,-2325.5 627.02,-2325.5 745.4,-2336.77"/>
<text text-anchor="middle" x="548.31" y="-2346.45" font-family="Times,serif" font-size="14.00" fill="#ffffff">NixOS generation 203, 3m ago (200.6 MB)</text>
</g>
<!-- N17&#45;&gt;N13 -->
<g id="edge4" class="edge">
<title>N17&#45;&gt;N13</title>
<path fill="none" stroke="black" d="M745.73,-2340.26C880.77,-2336.87 1044.72,-2342.73 1096.62,-2386.5 1259.96,-2524.26 1330.39,-3249.97 1343.82,-3406.66"/>
<polygon fill="black" stroke="black" points="1340.33,-3406.94 1344.66,-3416.61 1347.3,-3406.35 1340.33,-3406.94"/>
</g>
<!-- N17&#45;&gt;N14 -->
<g id="edge3" class="edge">
<title>N17&#45;&gt;N14</title>
<path fill="none" stroke="black" d="M745.8,-2351.5C875.65,-2351.5 1044.42,-2351.5 1169.95,-2351.5"/>
<polygon fill="black" stroke="black" points="1169.68,-2355 1179.68,-2351.5 1169.68,-2348 1169.68,-2355"/>
</g>
<!-- N16 -->
<g id="node78" class="node">
<title>N16</title>
<polygon fill="#33184a" stroke="#33184a" points="890.3,-104.05 890.3,-118.96 689.97,-129.5 406.66,-129.5 206.32,-118.96 206.32,-104.05 406.66,-93.5 689.97,-93.5 890.3,-104.05"/>
<polygon fill="none" stroke="#33184a" points="894.3,-100.25 894.3,-122.75 690.07,-133.5 406.55,-133.5 202.32,-122.75 202.32,-100.25 406.55,-89.5 690.07,-89.5 894.3,-100.25"/>
<polygon fill="none" stroke="#33184a" points="898.3,-96.46 898.3,-126.55 690.18,-137.5 406.45,-137.5 198.32,-126.55 198.32,-96.46 406.45,-85.5 690.18,-85.5 898.3,-96.46"/>
<text text-anchor="middle" x="548.31" y="-106.45" font-family="Times,serif" font-size="14.00" fill="#ffffff">/Users/patrick/.local/state/nix/profiles/home&#45;manager&#45;220&#45;link, 28d ago (1.4 MB)</text>
</g>
<!-- N16&#45;&gt;N7 -->
<g id="edge2" class="edge">
<title>N16&#45;&gt;N7</title>
<path fill="none" stroke="black" d="M801.48,-90.89C1065.16,-75.25 1455.24,-70.78 1561.87,-169.5 1618.41,-221.84 1657.15,-786.06 1665.71,-922.11"/>
<polygon fill="black" stroke="black" points="1662.2,-921.96 1666.31,-931.72 1669.18,-921.52 1662.2,-921.96"/>
</g>
<!-- N15 -->
<g id="node79" class="node">
<title>N15</title>
<polygon fill="#18ddc2" stroke="#18ddc2" points="888.08,-34.05 888.08,-48.96 689.05,-59.5 407.57,-59.5 208.54,-48.96 208.54,-34.05 407.57,-23.5 689.05,-23.5 888.08,-34.05"/>
<polygon fill="none" stroke="#18ddc2" points="892.08,-30.25 892.08,-52.75 689.16,-63.5 407.47,-63.5 204.54,-52.75 204.54,-30.25 407.47,-19.5 689.16,-19.5 892.08,-30.25"/>
<polygon fill="none" stroke="#18ddc2" points="896.08,-26.46 896.08,-56.55 689.26,-67.5 407.36,-67.5 200.54,-56.55 200.54,-26.46 407.36,-15.5 689.26,-15.5 896.08,-26.46"/>
<text text-anchor="middle" x="548.31" y="-36.45" font-family="Times,serif" font-size="14.00" fill="#000000">/Users/patrick/.local/state/nix/profiles/home&#45;manager&#45;219&#45;link, 28d ago (1.2 GB)</text>
</g>
<!-- N15&#45;&gt;N7 -->
<g id="edge1" class="edge">
<title>N15&#45;&gt;N7</title>
<path fill="none" stroke="black" d="M760.04,-18.78C1022.26,4.46 1449.3,24.1 1561.87,-79.5 1625.45,-138.01 1659.24,-776.31 1666.16,-922.01"/>
<polygon fill="black" stroke="black" points="1662.64,-921.77 1666.61,-931.6 1669.64,-921.44 1662.64,-921.77"/>
</g>
<!-- N89 -->
<g id="node80" class="node">
<title>N89</title>
<polygon fill="#1bd0d4" stroke="#1bd0d4" points="665.39,-5564.05 665.39,-5578.96 596.81,-5589.5 499.82,-5589.5 431.24,-5578.96 431.24,-5564.05 499.82,-5553.5 596.81,-5553.5 665.39,-5564.05"/>
<polygon fill="none" stroke="#1bd0d4" points="669.39,-5560.61 669.39,-5582.39 597.11,-5593.5 499.51,-5593.5 427.24,-5582.39 427.24,-5560.61 499.51,-5549.5 597.11,-5549.5 669.39,-5560.61"/>
<polygon fill="none" stroke="#1bd0d4" points="673.39,-5557.18 673.39,-5585.82 597.42,-5597.5 499.21,-5597.5 423.24,-5585.82 423.24,-5557.18 499.21,-5545.5 597.42,-5545.5 673.39,-5557.18"/>
<text text-anchor="middle" x="548.31" y="-5566.45" font-family="Times,serif" font-size="14.00" fill="#000000">{filtered out} (978.0 MB)</text>
</g>
<!-- N7&#45;&gt;N6 -->
<g id="edge84" class="edge">
<title>N7&#45;&gt;N6</title>
<path fill="none" stroke="black" d="M1669.35,-969.79C1668.08,-1147.35 1661.64,-2582.61 1775.12,-3737.5 1812.42,-4117.02 1901.8,-4572.66 1925.76,-4691.19"/>
<polygon fill="black" stroke="black" points="1922.27,-4691.61 1927.69,-4700.71 1929.13,-4690.21 1922.27,-4691.61"/>
</g>
<!-- N7&#45;&gt;N12 -->
<g id="edge83" class="edge">
<title>N7&#45;&gt;N12</title>
<path fill="none" stroke="black" d="M1671.24,-969.85C1692.54,-1193.86 1902.11,-3398.64 1928.93,-3680.83"/>
<polygon fill="black" stroke="black" points="1925.43,-3681 1929.86,-3690.62 1932.4,-3680.34 1925.43,-3681"/>
</g>
<!-- N8&#45;&gt;N12 -->
<g id="edge74" class="edge">
<title>N8&#45;&gt;N12</title>
<path fill="none" stroke="black" d="M1365.76,-2054.74C1406.32,-2097.97 1507.37,-2211.52 1561.87,-2324.5 1807.63,-2833.9 1908.44,-3530.25 1928.07,-3680.98"/>
<polygon fill="black" stroke="black" points="1924.55,-3681.03 1929.29,-3690.51 1931.49,-3680.14 1924.55,-3681.03"/>
</g>
<!-- N11 -->
<g id="node86" class="node">
<title>N11</title>
<polygon fill="#1ad2d1" stroke="#1ad2d1" points="2389.12,-3798.5 2126.37,-3798.5 2126.37,-3762.5 2389.12,-3762.5 2389.12,-3798.5"/>
<text text-anchor="middle" x="2257.75" y="-3775.45" font-family="Times,serif" font-size="14.00" fill="#000000">shared:texinfo&#45;interactive&#45;7.0.3 (1007.2 MB)</text>
</g>
<!-- N9&#45;&gt;N11 -->
<g id="edge60" class="edge">
<title>N9&#45;&gt;N11</title>
<path fill="none" stroke="black" d="M1405.01,-4799.94C1542.01,-4840.52 1893.95,-4920.86 2090.37,-4747.5 2235.26,-4619.64 2254.01,-3958.94 2256.41,-3810.24"/>
<polygon fill="black" stroke="black" points="2259.9,-3810.5 2256.55,-3800.45 2252.9,-3810.4 2259.9,-3810.5"/>
</g>
<!-- N12&#45;&gt;N11 -->
<g id="edge85" class="edge">
<title>N12&#45;&gt;N11</title>
<path fill="none" stroke="black" d="M2019.04,-3728.99C2062.46,-3738.4 2115.41,-3749.87 2160.31,-3759.6"/>
<polygon fill="black" stroke="black" points="2159.55,-3763.02 2170.07,-3761.72 2161.03,-3756.18 2159.55,-3763.02"/>
</g>
<!-- N13&#45;&gt;N7 -->
<g id="edge82" class="edge">
<title>N13&#45;&gt;N7</title>
<path fill="none" stroke="black" d="M1352.84,-3418.2C1378.34,-3315.89 1503.39,-2804.09 1561.87,-2378.5 1638.6,-1820.15 1662.29,-1130.7 1666.69,-981.04"/>
<polygon fill="black" stroke="black" points="1670.18,-981.32 1666.97,-971.22 1663.18,-981.12 1670.18,-981.32"/>
</g>
</g>
</svg>
